<?xml version="1.0" encoding="UTF-8" standalone="no"?>
<!DOCTYPE svg PUBLIC "-//W3C//DTD SVG 1.1//EN"
 "http://www.w3.org/Graphics/SVG/1.1/DTD/svg11.dtd">
<!-- Generated by graphviz version 2.26.3 (20100126.1600)
 -->
<!-- Title: Game Pages: 1 -->
<svg width="2742pt" height="3183pt"
 viewBox="0.00 0.00 658.00 764.00" xmlns="http://www.w3.org/2000/svg" xmlns:xlink="http://www.w3.org/1999/xlink">
<g id="graph1" class="graph" transform="scale(4.16667 4.16667) rotate(0) translate(4 760)">
<title>Game</title>
<polygon fill="white" stroke="white" points="-4,5 -4,-760 655,-760 655,5 -4,5"/>
<!-- system -->
<g id="node2" class="node"><title>system</title>
<polygon fill="white" stroke="black" points="372,-756 304,-756 304,-720 372,-720 372,-756"/>
<text text-anchor="middle" x="338" y="-734.4" font-family="Times Roman,serif" font-size="14.00">System</text>
</g>
<!-- introductory -->
<g id="node4" class="node"><title>introductory</title>
<polygon fill="pink" stroke="pink" points="337,-666 235,-666 235,-630 337,-630 337,-666"/>
<text text-anchor="middle" x="286" y="-644.4" font-family="Times Roman,serif" font-size="14.00">Introductory</text>
</g>
<!-- system&#45;&gt;introductory -->
<g id="edge51" class="edge"><title>system&#45;&gt;introductory</title>
<path fill="none" stroke="black" d="M327.477,-719.787C320.076,-706.978 310.045,-689.617 301.702,-675.176"/>
<polygon fill="black" stroke="black" points="304.541,-673.093 296.507,-666.186 298.48,-676.595 304.541,-673.093"/>
<text text-anchor="middle" x="329.5" y="-689.4" font-family="Times Roman,serif" font-size="14.00">run</text>
</g>
<!-- menu -->
<g id="node7" class="node"><title>menu</title>
<polygon fill="green" stroke="green" points="387,-576 295,-576 295,-540 387,-540 387,-576"/>
<text text-anchor="middle" x="341" y="-554.4" font-family="Times Roman,serif" font-size="14.00">Main menu</text>
</g>
<!-- introductory&#45;&gt;menu -->
<g id="edge8" class="edge"><title>introductory&#45;&gt;menu</title>
<path fill="none" stroke="black" d="M285.345,-629.853C285.724,-618.8 287.653,-604.78 294,-594 296.291,-590.108 299.18,-586.492 302.395,-583.171"/>
<polygon fill="black" stroke="black" points="304.812,-585.704 309.846,-576.382 300.097,-580.53 304.812,-585.704"/>
<text text-anchor="middle" x="327.5" y="-599.4" font-family="Times Roman,serif" font-size="14.00">wait, skip</text>
</g>
<!-- farewell -->
<g id="node5" class="node"><title>farewell</title>
<polygon fill="pink" stroke="pink" points="429,-666 355,-666 355,-630 429,-630 429,-666"/>
<text text-anchor="middle" x="392" y="-644.4" font-family="Times Roman,serif" font-size="14.00">Farewell</text>
</g>
<!-- farewell&#45;&gt;system -->
<g id="edge53" class="edge"><title>farewell&#45;&gt;system</title>
<path fill="none" stroke="black" d="M381.089,-666.186C373.334,-679.11 362.792,-696.68 354.077,-711.205"/>
<polygon fill="black" stroke="black" points="351.071,-709.411 348.928,-719.787 357.074,-713.013 351.071,-709.411"/>
<text text-anchor="middle" x="383" y="-689.4" font-family="Times Roman,serif" font-size="14.00">skip</text>
</g>
<!-- menu&#45;&gt;farewell -->
<g id="edge14" class="edge"><title>menu&#45;&gt;farewell</title>
<path fill="none" stroke="black" d="M353.658,-576.035C357.456,-581.692 361.531,-588.023 365,-594 369.893,-602.431 374.794,-611.863 379.052,-620.456"/>
<polygon fill="black" stroke="black" points="376.028,-622.242 383.551,-629.703 382.323,-619.18 376.028,-622.242"/>
<text text-anchor="middle" x="388" y="-599.4" font-family="Times Roman,serif" font-size="14.00">quit</text>
</g>
<!-- game -->
<g id="node8" class="node"><title>game</title>
<polygon fill="green" stroke="green" points="239,-486 139,-486 139,-450 239,-450 239,-486"/>
<text text-anchor="middle" x="189" y="-464.4" font-family="Times Roman,serif" font-size="14.00">Game menu</text>
</g>
<!-- menu&#45;&gt;game -->
<g id="edge10" class="edge"><title>menu&#45;&gt;game</title>
<path fill="none" stroke="black" d="M294.941,-555.443C246.517,-551.677 175.02,-542.694 158,-522 151.043,-513.541 154.449,-503.319 161.104,-494.055"/>
<polygon fill="black" stroke="black" points="163.909,-496.155 167.611,-486.228 158.527,-491.68 163.909,-496.155"/>
<text text-anchor="middle" x="208" y="-509.4" font-family="Times Roman,serif" font-size="14.00">&lt;enter&gt; start</text>
</g>
<!-- screensaver -->
<g id="node14" class="node"><title>screensaver</title>
<polygon fill="violet" stroke="violet" points="445,-306 345,-306 345,-270 445,-270 445,-306"/>
<text text-anchor="middle" x="395" y="-284.4" font-family="Times Roman,serif" font-size="14.00">Screensaver</text>
</g>
<!-- menu&#45;&gt;screensaver -->
<g id="edge17" class="edge"><title>menu&#45;&gt;screensaver</title>
<path fill="none" stroke="black" d="M387.207,-544.221C398.134,-538.911 408.714,-531.701 416,-522 468.85,-451.638 445.895,-406.767 416,-324 414.928,-321.033 413.613,-318.033 412.167,-315.097"/>
<polygon fill="black" stroke="black" points="415.101,-313.166 407.248,-306.054 408.953,-316.511 415.101,-313.166"/>
<text text-anchor="middle" x="462.5" y="-419.4" font-family="Times Roman,serif" font-size="14.00">wait</text>
</g>
<!-- game&#45;&gt;menu -->
<g id="edge12" class="edge"><title>game&#45;&gt;menu</title>
<path fill="none" stroke="black" d="M226.591,-486.027C236.985,-491.435 248.119,-497.632 258,-504 268.911,-511.032 270.303,-514.647 281,-522 287.125,-526.211 293.75,-530.465 300.286,-534.502"/>
<polygon fill="black" stroke="black" points="298.724,-537.648 309.088,-539.847 302.357,-531.665 298.724,-537.648"/>
<text text-anchor="middle" x="334.5" y="-509.4" font-family="Times Roman,serif" font-size="14.00">&lt;escape&gt; back</text>
</g>
<!-- level -->
<g id="node9" class="node"><title>level</title>
<polygon fill="green" stroke="green" points="272,-396 176,-396 176,-360 272,-360 272,-396"/>
<text text-anchor="middle" x="224" y="-374.4" font-family="Times Roman,serif" font-size="14.00">Level menu</text>
</g>
<!-- game&#45;&gt;level -->
<g id="edge23" class="edge"><title>game&#45;&gt;level</title>
<path fill="none" stroke="black" d="M138.721,-458.17C107.656,-449.748 76.5966,-435.519 93,-414 102.225,-401.898 135.432,-392.85 166.102,-386.851"/>
<polygon fill="black" stroke="black" points="166.751,-390.291 175.937,-385.011 165.464,-383.41 166.751,-390.291"/>
<text text-anchor="middle" x="146" y="-419.4" font-family="Times Roman,serif" font-size="14.00">&lt;enter&gt; select</text>
</g>
<!-- game&#45;&gt;screensaver -->
<g id="edge18" class="edge"><title>game&#45;&gt;screensaver</title>
<path fill="none" stroke="black" d="M239.202,-458.728C270.957,-452.04 308.325,-442.391 321,-432 348.668,-409.318 340.649,-391.822 357,-360 364.589,-345.23 373.216,-328.853 380.329,-315.454"/>
<polygon fill="black" stroke="black" points="383.598,-316.762 385.205,-306.29 377.418,-313.474 383.598,-316.762"/>
<text text-anchor="middle" x="372.5" y="-374.4" font-family="Times Roman,serif" font-size="14.00">wait</text>
</g>
<!-- level&#45;&gt;game -->
<g id="edge25" class="edge"><title>level&#45;&gt;game</title>
<path fill="none" stroke="black" d="M216.928,-396.186C211.996,-408.866 205.326,-426.018 199.741,-440.38"/>
<polygon fill="black" stroke="black" points="196.445,-439.199 196.083,-449.787 202.969,-441.736 196.445,-439.199"/>
<text text-anchor="middle" x="263.5" y="-419.4" font-family="Times Roman,serif" font-size="14.00">&lt;escape&gt; back</text>
</g>
<!-- countdown -->
<g id="node11" class="node"><title>countdown</title>
<polygon fill="yellow" stroke="yellow" points="315,-306 219,-306 219,-270 315,-270 315,-306"/>
<text text-anchor="middle" x="267" y="-284.4" font-family="Times Roman,serif" font-size="14.00">Countdown</text>
</g>
<!-- level&#45;&gt;countdown -->
<g id="edge27" class="edge"><title>level&#45;&gt;countdown</title>
<path fill="none" stroke="black" d="M224.863,-359.694C225.977,-348.844 228.469,-335.092 234,-324 235.688,-320.614 237.791,-317.315 240.112,-314.174"/>
<polygon fill="black" stroke="black" points="242.959,-316.223 246.631,-306.284 237.563,-311.764 242.959,-316.223"/>
<text text-anchor="middle" x="248.5" y="-329.4" font-family="Times Roman,serif" font-size="14.00">play</text>
</g>
<!-- level&#45;&gt;screensaver -->
<g id="edge19" class="edge"><title>level&#45;&gt;screensaver</title>
<path fill="none" stroke="black" d="M245.608,-359.768C259.83,-348.407 279.225,-334.084 298,-324 309.601,-317.769 322.513,-312.154 335.033,-307.314"/>
<polygon fill="black" stroke="black" points="336.367,-310.552 344.503,-303.766 333.911,-303.997 336.367,-310.552"/>
<text text-anchor="middle" x="313.5" y="-329.4" font-family="Times Roman,serif" font-size="14.00">wait</text>
</g>
<!-- stage -->
<g id="node12" class="node"><title>stage</title>
<polygon fill="yellow" stroke="yellow" points="300,-216 190,-216 190,-180 300,-180 300,-216"/>
<text text-anchor="middle" x="245" y="-194.4" font-family="Times Roman,serif" font-size="14.00">Stage playing</text>
</g>
<!-- countdown&#45;&gt;stage -->
<g id="edge29" class="edge"><title>countdown&#45;&gt;stage</title>
<path fill="none" stroke="black" d="M262.548,-269.787C259.477,-257.222 255.334,-240.277 251.846,-226.005"/>
<polygon fill="black" stroke="black" points="255.22,-225.069 249.445,-216.186 248.42,-226.731 255.22,-225.069"/>
<text text-anchor="middle" x="273.5" y="-239.4" font-family="Times Roman,serif" font-size="14.00">wait</text>
</g>
<!-- looser -->
<g id="node17" class="node"><title>looser</title>
<polygon fill="cyan" stroke="cyan" points="464,-126 352,-126 352,-90 464,-90 464,-126"/>
<text text-anchor="middle" x="408" y="-104.4" font-family="Times Roman,serif" font-size="14.00">Looser screen</text>
</g>
<!-- stage&#45;&gt;looser -->
<g id="edge35" class="edge"><title>stage&#45;&gt;looser</title>
<path fill="none" stroke="black" d="M278.268,-179.926C288.752,-174.211 300.369,-167.858 311,-162 329.231,-151.954 349.344,-140.773 366.505,-131.203"/>
<polygon fill="black" stroke="black" points="368.678,-133.999 375.705,-126.07 365.267,-127.886 368.678,-133.999"/>
<text text-anchor="middle" x="354.5" y="-149.4" font-family="Times Roman,serif" font-size="14.00">fail</text>
</g>
<!-- pause -->
<g id="node18" class="node"><title>pause</title>
<polygon fill="cyan" stroke="cyan" points="134,-126 28,-126 28,-90 134,-90 134,-126"/>
<text text-anchor="middle" x="81" y="-104.4" font-family="Times Roman,serif" font-size="14.00">Pause screen</text>
</g>
<!-- stage&#45;&gt;pause -->
<g id="edge37" class="edge"><title>stage&#45;&gt;pause</title>
<path fill="none" stroke="black" d="M189.677,-193.543C146.325,-188.767 91.0645,-179.398 77,-162 71.2031,-154.829 70.4356,-145.226 71.6944,-136.107"/>
<polygon fill="black" stroke="black" points="75.1502,-136.683 73.8166,-126.173 68.3047,-135.221 75.1502,-136.683"/>
<text text-anchor="middle" x="97.5" y="-149.4" font-family="Times Roman,serif" font-size="14.00">pause</text>
</g>
<!-- completion -->
<g id="node19" class="node"><title>completion</title>
<polygon fill="cyan" stroke="cyan" points="334,-126 240,-126 240,-90 334,-90 334,-126"/>
<text text-anchor="middle" x="287" y="-104.4" font-family="Times Roman,serif" font-size="14.00">Completion</text>
</g>
<!-- stage&#45;&gt;completion -->
<g id="edge31" class="edge"><title>stage&#45;&gt;completion</title>
<path fill="none" stroke="black" d="M257.782,-179.789C261.365,-174.231 265.076,-168.001 268,-162 272.005,-153.781 275.586,-144.495 278.529,-135.971"/>
<polygon fill="black" stroke="black" points="281.87,-137.016 281.679,-126.423 275.222,-134.823 281.87,-137.016"/>
<text text-anchor="middle" x="291.5" y="-149.4" font-family="Times Roman,serif" font-size="14.00">pass</text>
</g>
<!-- screensaver&#45;&gt;menu -->
<g id="edge21" class="edge"><title>screensaver&#45;&gt;menu</title>
<path fill="none" stroke="black" d="M399.463,-306.308C408.49,-347.528 425.069,-449.658 388,-522 385.941,-526.019 383.204,-529.719 380.082,-533.091"/>
<polygon fill="black" stroke="black" points="377.665,-530.56 372.749,-539.945 382.445,-535.674 377.665,-530.56"/>
<text text-anchor="middle" x="425" y="-419.4" font-family="Times Roman,serif" font-size="14.00">skip</text>
</g>
<!-- winner -->
<g id="node16" class="node"><title>winner</title>
<polygon fill="cyan" stroke="cyan" points="138,-36 22,-36 22,-1.77636e-14 138,-3.55271e-15 138,-36"/>
<text text-anchor="middle" x="80" y="-14.4" font-family="Times Roman,serif" font-size="14.00">Winner screen</text>
</g>
<!-- winner&#45;&gt;game -->
<g id="edge49" class="edge"><title>winner&#45;&gt;game</title>
<path fill="none" stroke="black" d="M49.2987,-36.0189C26.7383,-51.8136 0,-77.0598 0,-108 0,-378 0,-378 0,-378 0,-407.056 73.7353,-434.927 129.095,-451.757"/>
<polygon fill="black" stroke="black" points="128.264,-455.162 138.848,-454.667 130.266,-448.454 128.264,-455.162"/>
<text text-anchor="middle" x="14" y="-239.4" font-family="Times Roman,serif" font-size="14.00">skip</text>
</g>
<!-- looser&#45;&gt;menu -->
<g id="edge47" class="edge"><title>looser&#45;&gt;menu</title>
<path fill="none" stroke="black" d="M464.118,-121.207C501.953,-133.829 545,-157.163 545,-198 545,-468 545,-468 545,-468 545,-500.498 457.246,-529.082 396.849,-544.907"/>
<polygon fill="black" stroke="black" points="395.85,-541.55 387.036,-547.429 397.592,-548.329 395.85,-541.55"/>
<text text-anchor="middle" x="597.5" y="-329.4" font-family="Times Roman,serif" font-size="14.00">&lt;escape&gt; stop</text>
</g>
<!-- looser&#45;&gt;countdown -->
<g id="edge45" class="edge"><title>looser&#45;&gt;countdown</title>
<path fill="none" stroke="black" d="M401.08,-126.372C392.086,-148.856 374.904,-187.455 353,-216 338.44,-234.975 331.317,-236.621 313,-252 308.423,-255.843 303.515,-259.825 298.671,-263.678"/>
<polygon fill="black" stroke="black" points="296.342,-261.057 290.65,-269.993 300.672,-266.557 296.342,-261.057"/>
<text text-anchor="middle" x="431" y="-194.4" font-family="Times Roman,serif" font-size="14.00">&lt;enter&gt; repeat</text>
</g>
<!-- pause&#45;&gt;menu -->
<g id="edge41" class="edge"><title>pause&#45;&gt;menu</title>
<path fill="none" stroke="black" d="M68.3466,-126.022C57.2923,-143.554 43,-171.372 43,-198 43,-468 43,-468 43,-468 43,-517.921 198.188,-542.661 284.584,-552.566"/>
<polygon fill="black" stroke="black" points="284.438,-556.071 294.764,-553.701 285.214,-549.114 284.438,-556.071"/>
<text text-anchor="middle" x="91" y="-329.4" font-family="Times Roman,serif" font-size="14.00">&lt;enter&gt; stop</text>
</g>
<!-- pause&#45;&gt;stage -->
<g id="edge39" class="edge"><title>pause&#45;&gt;stage</title>
<path fill="none" stroke="black" d="M99.7494,-126.267C115.588,-141.669 135.881,-161.322 137,-162 150.244,-170.02 165.496,-176.503 180.287,-181.638"/>
<polygon fill="black" stroke="black" points="179.321,-185.005 189.914,-184.821 181.518,-178.359 179.321,-185.005"/>
<text text-anchor="middle" x="200.5" y="-149.4" font-family="Times Roman,serif" font-size="14.00">&lt;escape&gt; resume</text>
</g>
<!-- completion&#45;&gt;countdown -->
<g id="edge43" class="edge"><title>completion&#45;&gt;countdown</title>
<path fill="none" stroke="black" d="M302.218,-126.362C305.805,-131.726 309.128,-137.817 311,-144 320.277,-174.639 316.224,-184.813 309,-216 305.232,-232.266 296.33,-248.494 287.686,-261.415"/>
<polygon fill="black" stroke="black" points="284.687,-259.596 281.81,-269.792 290.418,-263.616 284.687,-259.596"/>
<text text-anchor="middle" x="333" y="-194.4" font-family="Times Roman,serif" font-size="14.00">next</text>
</g>
<!-- completion&#45;&gt;winner -->
<g id="edge33" class="edge"><title>completion&#45;&gt;winner</title>
<path fill="none" stroke="black" d="M245.11,-89.7872C212.175,-75.4675 166.153,-55.458 131.061,-40.2006"/>
<polygon fill="black" stroke="black" points="132.04,-36.8095 121.474,-36.032 129.249,-43.229 132.04,-36.8095"/>
<text text-anchor="middle" x="295" y="-59.4" font-family="Times Roman,serif" font-size="14.00">next (all levels are passed)</text>
</g>
</g>
</svg>
