<?xml version="1.0" encoding="UTF-8" standalone="no"?>
<!DOCTYPE svg PUBLIC "-//W3C//DTD SVG 1.1//EN"
 "http://www.w3.org/Graphics/SVG/1.1/DTD/svg11.dtd">
<!-- Generated by graphviz version 2.28.0 (20110507.0327)
 -->
<!-- Title: Game Pages: 1 -->
<svg width="3950pt" height="3233pt"
 viewBox="0.00 0.00 948.00 776.00" xmlns="http://www.w3.org/2000/svg" xmlns:xlink="http://www.w3.org/1999/xlink">
<g id="graph1" class="graph" transform="scale(4.16667 4.16667) rotate(0) translate(4 772)">
<title>Game</title>
<polygon fill="white" stroke="white" points="-4,5 -4,-772 945,-772 945,5 -4,5"/>
<!-- system -->
<g id="node2" class="node"><title>system</title>
<polygon fill="white" stroke="black" points="247,-768 189,-768 189,-732 247,-732 247,-768"/>
<text text-anchor="middle" x="218" y="-746.3" font-family="Times New Roman,serif" font-size="14.00">System</text>
</g>
<!-- introduction -->
<g id="node5" class="node"><title>introduction</title>
<polygon fill="pink" stroke="pink" points="219,-680 133,-680 133,-644 219,-644 219,-680"/>
<text text-anchor="middle" x="176" y="-658.3" font-family="Times New Roman,serif" font-size="14.00">Introduction</text>
</g>
<!-- system&#45;&gt;introduction -->
<g id="edge14" class="edge"><title>system&#45;&gt;introduction</title>
<path fill="none" stroke="black" d="M209.501,-731.597C203.541,-719.394 195.47,-702.867 188.743,-689.093"/>
<polygon fill="black" stroke="black" points="191.877,-687.534 184.343,-680.084 185.587,-690.606 191.877,-687.534"/>
<text text-anchor="middle" x="210.5" y="-702.3" font-family="Times New Roman,serif" font-size="14.00">run</text>
</g>
<!-- titres_mode -->
<g id="node4" class="node"><title>titres_mode</title>
<polygon fill="pink" stroke="pink" points="923,-768 839,-768 839,-732 923,-732 923,-768"/>
<text text-anchor="middle" x="881" y="-746.3" font-family="Times New Roman,serif" font-size="14.00">Titres mode</text>
</g>
<!-- menu_mode -->
<g id="node9" class="node"><title>menu_mode</title>
<polygon fill="green" stroke="green" points="922.25,-680 839.75,-680 839.75,-644 922.25,-644 922.25,-680"/>
<text text-anchor="middle" x="881" y="-658.3" font-family="Times New Roman,serif" font-size="14.00">Menu mode</text>
</g>
<!-- titres_mode&#45;&gt;menu_mode -->
<g id="edge9" class="edge"><title>titres_mode&#45;&gt;menu_mode</title>
<path fill="none" stroke="black" stroke-dasharray="1,5" d="M881,-731.597C881,-716.578 881,-695.009 881,-680.084"/>
</g>
<!-- menu -->
<g id="node10" class="node"><title>menu</title>
<polygon fill="green" stroke="green" points="262,-578 184,-578 184,-542 262,-542 262,-578"/>
<text text-anchor="middle" x="223" y="-556.3" font-family="Times New Roman,serif" font-size="14.00">Main menu</text>
</g>
<!-- introduction&#45;&gt;menu -->
<g id="edge18" class="edge"><title>introduction&#45;&gt;menu</title>
<path fill="none" stroke="black" d="M171.521,-643.726C168.927,-630.026 167.481,-610.789 175,-596 177.054,-591.961 179.817,-588.277 182.984,-584.946"/>
<polygon fill="black" stroke="black" points="185.366,-587.511 190.448,-578.215 180.678,-582.312 185.366,-587.511"/>
<text text-anchor="middle" x="213" y="-614.8" font-family="Times New Roman,serif" font-size="14.00">&lt;5 sec&gt; wait,</text>
<text text-anchor="middle" x="213" y="-599.8" font-family="Times New Roman,serif" font-size="14.00">&lt;any&gt; skip</text>
</g>
<!-- farewell -->
<g id="node6" class="node"><title>farewell</title>
<polygon fill="pink" stroke="pink" points="301.25,-680 238.75,-680 238.75,-644 301.25,-644 301.25,-680"/>
<text text-anchor="middle" x="270" y="-658.3" font-family="Times New Roman,serif" font-size="14.00">Farewell</text>
</g>
<!-- farewell&#45;&gt;system -->
<g id="edge16" class="edge"><title>farewell&#45;&gt;system</title>
<path fill="none" stroke="black" d="M259.67,-680.084C252.267,-692.327 242.161,-709.041 233.756,-722.943"/>
<polygon fill="black" stroke="black" points="230.702,-721.228 228.523,-731.597 236.692,-724.85 230.702,-721.228"/>
<text text-anchor="middle" x="300.5" y="-702.3" font-family="Times New Roman,serif" font-size="14.00">&lt;5 sec&gt; wait, skip</text>
</g>
<!-- screensaver_mode -->
<g id="node18" class="node"><title>screensaver_mode</title>
<polygon fill="violet" stroke="violet" points="940.25,-578 821.75,-578 821.75,-542 940.25,-542 940.25,-578"/>
<text text-anchor="middle" x="881" y="-556.3" font-family="Times New Roman,serif" font-size="14.00">Screensaver mode</text>
</g>
<!-- menu_mode&#45;&gt;screensaver_mode -->
<g id="edge10" class="edge"><title>menu_mode&#45;&gt;screensaver_mode</title>
<path fill="none" stroke="black" stroke-dasharray="1,5" d="M881,-643.581C881,-625.227 881,-596.498 881,-578.219"/>
</g>
<!-- menu&#45;&gt;farewell -->
<g id="edge24" class="edge"><title>menu&#45;&gt;farewell</title>
<path fill="none" stroke="black" d="M238.975,-578.226C243.349,-583.616 247.769,-589.787 251,-596 257.126,-607.779 261.544,-621.813 264.569,-633.822"/>
<polygon fill="black" stroke="black" points="261.203,-634.798 266.877,-643.745 268.021,-633.213 261.203,-634.798"/>
<text text-anchor="middle" x="303" y="-607.3" font-family="Times New Roman,serif" font-size="14.00">&lt;escape&gt; quit</text>
</g>
<!-- game -->
<g id="node11" class="node"><title>game</title>
<polygon fill="green" stroke="green" points="366.25,-490 283.75,-490 283.75,-454 366.25,-454 366.25,-490"/>
<text text-anchor="middle" x="325" y="-468.3" font-family="Times New Roman,serif" font-size="14.00">Game menu</text>
</g>
<!-- menu&#45;&gt;game -->
<g id="edge20" class="edge"><title>menu&#45;&gt;game</title>
<path fill="none" stroke="black" d="M262.092,-551.324C278.907,-546.185 297.524,-537.741 310,-524 315.91,-517.491 319.499,-508.763 321.675,-500.37"/>
<polygon fill="black" stroke="black" points="325.126,-500.967 323.691,-490.47 318.266,-499.571 325.126,-500.967"/>
<text text-anchor="middle" x="357" y="-512.3" font-family="Times New Roman,serif" font-size="14.00">&lt;enter&gt; open</text>
</g>
<!-- screensaver -->
<g id="node19" class="node"><title>screensaver</title>
<polygon fill="violet" stroke="violet" points="261,-314 177,-314 177,-278 261,-278 261,-314"/>
<text text-anchor="middle" x="219" y="-292.3" font-family="Times New Roman,serif" font-size="14.00">Screensaver</text>
</g>
<!-- menu&#45;&gt;screensaver -->
<g id="edge27" class="edge"><title>menu&#45;&gt;screensaver</title>
<path fill="none" stroke="black" d="M215.858,-541.847C213.874,-536.257 211.993,-529.956 211,-524 209.831,-516.986 210.96,-515.111 211,-508 211.222,-468.887 210.666,-459.091 212,-420 213.125,-387.041 215.434,-349.166 217.093,-324.252"/>
<polygon fill="black" stroke="black" points="220.596,-324.315 217.78,-314.101 213.612,-323.842 220.596,-324.315"/>
<text text-anchor="middle" x="251.5" y="-424.3" font-family="Times New Roman,serif" font-size="14.00">&lt;60 sec&gt; wait</text>
</g>
<!-- game&#45;&gt;menu -->
<g id="edge22" class="edge"><title>game&#45;&gt;menu</title>
<path fill="none" stroke="black" d="M283.551,-475.491C260.836,-479.229 234.437,-487.969 220,-508 215.114,-514.779 214.231,-523.477 215.066,-531.762"/>
<polygon fill="black" stroke="black" points="211.666,-532.633 216.871,-541.861 218.557,-531.401 211.666,-532.633"/>
<text text-anchor="middle" x="263" y="-512.3" font-family="Times New Roman,serif" font-size="14.00">&lt;escape&gt; back</text>
</g>
<!-- level -->
<g id="node12" class="node"><title>level</title>
<polygon fill="green" stroke="green" points="459,-402 379,-402 379,-366 459,-366 459,-402"/>
<text text-anchor="middle" x="419" y="-380.3" font-family="Times New Roman,serif" font-size="14.00">Level menu</text>
</g>
<!-- game&#45;&gt;level -->
<g id="edge33" class="edge"><title>game&#45;&gt;level</title>
<path fill="none" stroke="black" d="M317.014,-453.939C313.299,-443.273 311.055,-429.757 318,-420 319.704,-417.606 344.455,-409.01 369.026,-400.937"/>
<polygon fill="black" stroke="black" points="370.325,-404.195 378.746,-397.766 368.154,-397.54 370.325,-404.195"/>
<text text-anchor="middle" x="357.5" y="-424.3" font-family="Times New Roman,serif" font-size="14.00">&lt;enter&gt; select</text>
</g>
<!-- game&#45;&gt;screensaver -->
<g id="edge28" class="edge"><title>game&#45;&gt;screensaver</title>
<path fill="none" stroke="black" d="M314.643,-453.999C296.041,-423.463 256.863,-359.153 234.859,-323.033"/>
<polygon fill="black" stroke="black" points="237.59,-320.789 229.399,-314.07 231.612,-324.431 237.59,-320.789"/>
<text text-anchor="middle" x="322.5" y="-380.3" font-family="Times New Roman,serif" font-size="14.00">&lt;60 sec&gt; wait</text>
</g>
<!-- level&#45;&gt;game -->
<g id="edge35" class="edge"><title>level&#45;&gt;game</title>
<path fill="none" stroke="black" d="M414.856,-402.344C411.537,-413.123 405.928,-426.659 397,-436 390.86,-442.424 383.296,-447.823 375.402,-452.307"/>
<polygon fill="black" stroke="black" points="373.662,-449.266 366.407,-456.987 376.894,-455.476 373.662,-449.266"/>
<text text-anchor="middle" x="451" y="-424.3" font-family="Times New Roman,serif" font-size="14.00">&lt;escape&gt; back</text>
</g>
<!-- countdown -->
<g id="node15" class="node"><title>countdown</title>
<polygon fill="yellow" stroke="yellow" points="391.25,-314 308.75,-314 308.75,-278 391.25,-278 391.25,-314"/>
<text text-anchor="middle" x="350" y="-292.3" font-family="Times New Roman,serif" font-size="14.00">Countdown</text>
</g>
<!-- level&#45;&gt;countdown -->
<g id="edge37" class="edge"><title>level&#45;&gt;countdown</title>
<path fill="none" stroke="black" d="M413.657,-365.757C409.848,-355.279 403.982,-342.033 396,-332 392.802,-327.98 389.044,-324.169 385.077,-320.643"/>
<polygon fill="black" stroke="black" points="387.232,-317.883 377.285,-314.235 382.786,-323.29 387.232,-317.883"/>
<text text-anchor="middle" x="442" y="-336.3" font-family="Times New Roman,serif" font-size="14.00">&lt;enter&gt; start</text>
</g>
<!-- level&#45;&gt;screensaver -->
<g id="edge29" class="edge"><title>level&#45;&gt;screensaver</title>
<path fill="none" stroke="black" d="M378.816,-370.122C350.131,-360.866 316.088,-349.725 313,-348 303.362,-342.616 303.305,-337.941 294,-332 286.351,-327.116 277.912,-322.512 269.537,-318.346"/>
<polygon fill="black" stroke="black" points="271.045,-315.188 260.516,-314.006 268.01,-321.496 271.045,-315.188"/>
<text text-anchor="middle" x="352.5" y="-336.3" font-family="Times New Roman,serif" font-size="14.00">&lt;60 sec&gt; wait</text>
</g>
<!-- gameplay_mode -->
<g id="node14" class="node"><title>gameplay_mode</title>
<polygon fill="yellow" stroke="yellow" points="935,-490 827,-490 827,-454 935,-454 935,-490"/>
<text text-anchor="middle" x="881" y="-468.3" font-family="Times New Roman,serif" font-size="14.00">Gameplay mode</text>
</g>
<!-- information_mode -->
<g id="node21" class="node"><title>information_mode</title>
<polygon fill="cyan" stroke="cyan" points="939.25,-402 822.75,-402 822.75,-366 939.25,-366 939.25,-402"/>
<text text-anchor="middle" x="881" y="-380.3" font-family="Times New Roman,serif" font-size="14.00">Information mode</text>
</g>
<!-- gameplay_mode&#45;&gt;information_mode -->
<g id="edge12" class="edge"><title>gameplay_mode&#45;&gt;information_mode</title>
<path fill="none" stroke="black" stroke-dasharray="1,5" d="M881,-453.597C881,-438.578 881,-417.009 881,-402.084"/>
</g>
<!-- stage -->
<g id="node16" class="node"><title>stage</title>
<polygon fill="yellow" stroke="yellow" points="304.25,-212 213.75,-212 213.75,-176 304.25,-176 304.25,-212"/>
<text text-anchor="middle" x="259" y="-190.3" font-family="Times New Roman,serif" font-size="14.00">Stage playing</text>
</g>
<!-- countdown&#45;&gt;stage -->
<g id="edge39" class="edge"><title>countdown&#45;&gt;stage</title>
<path fill="none" stroke="black" d="M308.652,-289.371C290.623,-284.649 271.103,-275.966 260,-260 252.449,-249.142 251.601,-234.604 252.903,-222.031"/>
<polygon fill="black" stroke="black" points="256.377,-222.464 254.401,-212.055 249.454,-221.424 256.377,-222.464"/>
<text text-anchor="middle" x="298" y="-241.3" font-family="Times New Roman,serif" font-size="14.00">&lt;N sec&gt; wait</text>
</g>
<!-- pause -->
<g id="node24" class="node"><title>pause</title>
<polygon fill="cyan" stroke="cyan" points="129.25,-124 40.75,-124 40.75,-88 129.25,-88 129.25,-124"/>
<text text-anchor="middle" x="85" y="-102.3" font-family="Times New Roman,serif" font-size="14.00">Pause screen</text>
</g>
<!-- countdown&#45;&gt;pause -->
<g id="edge41" class="edge"><title>countdown&#45;&gt;pause</title>
<path fill="none" stroke="black" d="M308.355,-284.697C248.454,-269.18 141.978,-238.776 113,-212 91.7315,-192.347 85.9015,-158.514 84.6426,-134.571"/>
<polygon fill="black" stroke="black" points="88.1348,-134.246 84.3469,-124.352 81.1377,-134.449 88.1348,-134.246"/>
<text text-anchor="middle" x="158.5" y="-190.3" font-family="Times New Roman,serif" font-size="14.00">&lt;escape&gt; pause</text>
</g>
<!-- looser -->
<g id="node23" class="node"><title>looser</title>
<polygon fill="cyan" stroke="cyan" points="398,-124 302,-124 302,-88 398,-88 398,-124"/>
<text text-anchor="middle" x="350" y="-102.3" font-family="Times New Roman,serif" font-size="14.00">Looser screen</text>
</g>
<!-- stage&#45;&gt;looser -->
<g id="edge45" class="edge"><title>stage&#45;&gt;looser</title>
<path fill="none" stroke="black" d="M277.415,-175.597C290.948,-162.807 309.507,-145.268 324.471,-131.126"/>
<polygon fill="black" stroke="black" points="327.059,-133.496 331.923,-124.084 322.251,-128.409 327.059,-133.496"/>
<text text-anchor="middle" x="321.5" y="-146.3" font-family="Times New Roman,serif" font-size="14.00">fail</text>
</g>
<!-- stage&#45;&gt;pause -->
<g id="edge47" class="edge"><title>stage&#45;&gt;pause</title>
<path fill="none" stroke="black" d="M213.546,-185.109C170.533,-177.275 111.328,-165.395 103,-158 96.0359,-151.816 91.7662,-142.768 89.1484,-134.004"/>
<polygon fill="black" stroke="black" points="92.4953,-132.95 86.7717,-124.034 85.6861,-134.573 92.4953,-132.95"/>
<text text-anchor="middle" x="148.5" y="-146.3" font-family="Times New Roman,serif" font-size="14.00">&lt;escape&gt; pause</text>
</g>
<!-- completion -->
<g id="node25" class="node"><title>completion</title>
<polygon fill="cyan" stroke="cyan" points="503,-124 421,-124 421,-88 503,-88 503,-124"/>
<text text-anchor="middle" x="462" y="-102.3" font-family="Times New Roman,serif" font-size="14.00">Completion</text>
</g>
<!-- stage&#45;&gt;completion -->
<g id="edge43" class="edge"><title>stage&#45;&gt;completion</title>
<path fill="none" stroke="black" d="M299.592,-175.803C332.061,-162.048 377.725,-142.703 412.366,-128.027"/>
<polygon fill="black" stroke="black" points="413.982,-131.144 421.825,-124.02 411.251,-124.698 413.982,-131.144"/>
<text text-anchor="middle" x="392" y="-146.3" font-family="Times New Roman,serif" font-size="14.00">pass</text>
</g>
<!-- screensaver_mode&#45;&gt;gameplay_mode -->
<g id="edge11" class="edge"><title>screensaver_mode&#45;&gt;gameplay_mode</title>
<path fill="none" stroke="black" stroke-dasharray="1,5" d="M881,-541.597C881,-526.578 881,-505.009 881,-490.084"/>
</g>
<!-- screensaver&#45;&gt;menu -->
<g id="edge31" class="edge"><title>screensaver&#45;&gt;menu</title>
<path fill="none" stroke="black" d="M198.975,-314.379C172.353,-339.71 130.178,-388.903 144,-436 155.06,-473.686 181.617,-510.757 200.894,-534.185"/>
<polygon fill="black" stroke="black" points="198.254,-536.484 207.371,-541.881 203.61,-531.976 198.254,-536.484"/>
<text text-anchor="middle" x="176" y="-424.3" font-family="Times New Roman,serif" font-size="14.00">&lt;any&gt; skip</text>
</g>
<!-- winner -->
<g id="node22" class="node"><title>winner</title>
<polygon fill="cyan" stroke="cyan" points="563.25,-36 466.75,-36 466.75,-0 563.25,-0 563.25,-36"/>
<text text-anchor="middle" x="515" y="-14.3" font-family="Times New Roman,serif" font-size="14.00">Winner screen</text>
</g>
<!-- winner&#45;&gt;game -->
<g id="edge63" class="edge"><title>winner&#45;&gt;game</title>
<path fill="none" stroke="black" d="M563.423,-28.7584C578.549,-33.975 594.108,-41.9245 605,-54 620.743,-71.4541 619,-81.4948 619,-105 619,-385 619,-385 619,-385 619,-434.903 460.996,-457.857 376.652,-466.556"/>
<polygon fill="black" stroke="black" points="376.102,-463.093 366.499,-467.571 376.798,-470.059 376.102,-463.093"/>
<text text-anchor="middle" x="699" y="-248.8" font-family="Times New Roman,serif" font-size="14.00">&lt;M sec&gt; wait,</text>
<text text-anchor="middle" x="699" y="-233.8" font-family="Times New Roman,serif" font-size="14.00">&lt;enter&gt; skip congratulations</text>
</g>
<!-- looser&#45;&gt;menu -->
<g id="edge61" class="edge"><title>looser&#45;&gt;menu</title>
<path fill="none" stroke="black" d="M398.26,-121.235C448.52,-137.537 520,-165.547 520,-193 520,-473 520,-473 520,-473 520,-523.952 356.689,-546.628 272.267,-554.946"/>
<polygon fill="black" stroke="black" points="271.755,-551.478 262.133,-555.913 272.42,-558.447 271.755,-551.478"/>
<text text-anchor="middle" x="562" y="-336.3" font-family="Times New Roman,serif" font-size="14.00">&lt;escape&gt; stop</text>
</g>
<!-- looser&#45;&gt;countdown -->
<g id="edge59" class="edge"><title>looser&#45;&gt;countdown</title>
<path fill="none" stroke="black" d="M350,-124.112C350,-156.824 350,-228.467 350,-267.805"/>
<polygon fill="black" stroke="black" points="346.5,-267.985 350,-277.985 353.5,-267.985 346.5,-267.985"/>
<text text-anchor="middle" x="391" y="-190.3" font-family="Times New Roman,serif" font-size="14.00">&lt;enter&gt; repeat</text>
</g>
<!-- pause&#45;&gt;menu -->
<g id="edge51" class="edge"><title>pause&#45;&gt;menu</title>
<path fill="none" stroke="black" d="M51.4057,-124.013C27.6468,-138.689 0,-162.351 0,-193 0,-473 0,-473 0,-473 0,-509.975 108.073,-537.148 173.748,-550.247"/>
<polygon fill="black" stroke="black" points="173.416,-553.748 183.901,-552.227 174.756,-546.877 173.416,-553.748"/>
<text text-anchor="middle" x="44" y="-336.3" font-family="Times New Roman,serif" font-size="14.00">&lt;enter&gt; resume</text>
</g>
<!-- pause&#45;&gt;stage -->
<g id="edge49" class="edge"><title>pause&#45;&gt;stage</title>
<path fill="none" stroke="black" d="M129.447,-117.317C149.821,-123.027 173.862,-131.188 194,-142 204.029,-147.385 205.063,-150.95 214,-158 218.779,-161.77 223.859,-165.748 228.819,-169.618"/>
<polygon fill="black" stroke="black" points="226.939,-172.59 236.98,-175.97 231.239,-167.066 226.939,-172.59"/>
<text text-anchor="middle" x="253.5" y="-146.3" font-family="Times New Roman,serif" font-size="14.00">&lt;escape&gt; exit</text>
</g>
<!-- completion&#45;&gt;menu -->
<g id="edge55" class="edge"><title>completion&#45;&gt;menu</title>
<path fill="none" stroke="black" d="M503.043,-109.018C591.87,-114.508 794,-133.533 794,-193 794,-473 794,-473 794,-473 794,-525.516 411.445,-549.679 272.592,-556.72"/>
<polygon fill="black" stroke="black" points="272.06,-553.242 262.247,-557.235 272.409,-560.233 272.06,-553.242"/>
<text text-anchor="middle" x="846" y="-336.3" font-family="Times New Roman,serif" font-size="14.00">&lt;escape&gt; to menu</text>
</g>
<!-- completion&#45;&gt;countdown -->
<g id="edge53" class="edge"><title>completion&#45;&gt;countdown</title>
<path fill="none" stroke="black" d="M460.69,-124.079C458.395,-145.797 452.226,-183.853 436,-212 422.52,-235.384 400.535,-256.433 382.168,-271.484"/>
<polygon fill="black" stroke="black" points="379.672,-268.997 374.028,-277.963 384.032,-274.474 379.672,-268.997"/>
<text text-anchor="middle" x="463" y="-190.3" font-family="Times New Roman,serif" font-size="14.00">next</text>
</g>
<!-- completion&#45;&gt;winner -->
<g id="edge57" class="edge"><title>completion&#45;&gt;winner</title>
<path fill="none" stroke="black" d="M428.002,-87.8165C414.133,-78.4568 403.191,-66.2977 412,-54 422.481,-39.3688 439.432,-30.7806 456.583,-25.7638"/>
<polygon fill="black" stroke="black" points="457.828,-29.059 466.658,-23.204 456.104,-22.2745 457.828,-29.059"/>
<text text-anchor="middle" x="508.5" y="-58.3" font-family="Times New Roman,serif" font-size="14.00">&lt;enter&gt; next (all levels are passed)</text>
</g>
</g>
</svg>
