<?xml version="1.0" encoding="UTF-8" standalone="no"?>
<!DOCTYPE svg PUBLIC "-//W3C//DTD SVG 1.1//EN"
 "http://www.w3.org/Graphics/SVG/1.1/DTD/svg11.dtd">
<!-- Generated by graphviz version 2.26.3 (20100126.1600)
 -->
<!-- Title: Game Pages: 1 -->
<svg width="1156pt" height="800pt"
 viewBox="0.00 0.00 1156.00 800.00" xmlns="http://www.w3.org/2000/svg" xmlns:xlink="http://www.w3.org/1999/xlink">
<g id="graph1" class="graph" transform="scale(1 1) rotate(0) translate(4 796)">
<title>Game</title>
<polygon fill="white" stroke="white" points="-4,5 -4,-796 1153,-796 1153,5 -4,5"/>
<!-- system -->
<g id="node2" class="node"><title>system</title>
<polygon fill="white" stroke="black" points="297,-792 229,-792 229,-756 297,-756 297,-792"/>
<text text-anchor="middle" x="263" y="-770.4" font-family="Times Roman,serif" font-size="14.00">System</text>
</g>
<!-- introduction -->
<g id="node5" class="node"><title>introduction</title>
<polygon fill="pink" stroke="pink" points="264,-702 164,-702 164,-666 264,-666 264,-702"/>
<text text-anchor="middle" x="214" y="-680.4" font-family="Times Roman,serif" font-size="14.00">Introduction</text>
</g>
<!-- system&#45;&gt;introduction -->
<g id="edge14" class="edge"><title>system&#45;&gt;introduction</title>
<path fill="none" stroke="black" d="M253.084,-755.787C246.11,-742.978 236.658,-725.617 228.796,-711.176"/>
<polygon fill="black" stroke="black" points="231.757,-709.295 223.901,-702.186 225.609,-712.642 231.757,-709.295"/>
<text text-anchor="middle" x="255.5" y="-725.4" font-family="Times Roman,serif" font-size="14.00">run</text>
</g>
<!-- titres_mode -->
<g id="node4" class="node"><title>titres_mode</title>
<polygon fill="pink" stroke="pink" points="1126,-792 1028,-792 1028,-756 1126,-756 1126,-792"/>
<text text-anchor="middle" x="1077" y="-770.4" font-family="Times Roman,serif" font-size="14.00">Titres mode</text>
</g>
<!-- menu_mode -->
<g id="node9" class="node"><title>menu_mode</title>
<polygon fill="lightgreen" stroke="lightgreen" points="1125,-702 1029,-702 1029,-666 1125,-666 1125,-702"/>
<text text-anchor="middle" x="1077" y="-680.4" font-family="Times Roman,serif" font-size="14.00">Menu mode</text>
</g>
<!-- titres_mode&#45;&gt;menu_mode -->
<g id="edge9" class="edge"><title>titres_mode&#45;&gt;menu_mode</title>
<path fill="none" stroke="black" stroke-dasharray="1,5" d="M1077,-755.787C1077,-740.173 1077,-717.793 1077,-702.186"/>
</g>
<!-- menu -->
<g id="node10" class="node"><title>menu</title>
<polygon fill="lightgreen" stroke="lightgreen" points="316,-594 224,-594 224,-558 316,-558 316,-594"/>
<text text-anchor="middle" x="270" y="-572.4" font-family="Times Roman,serif" font-size="14.00">Main menu</text>
</g>
<!-- introduction&#45;&gt;menu -->
<g id="edge18" class="edge"><title>introduction&#45;&gt;menu</title>
<path fill="none" stroke="black" d="M206.228,-665.872C200.918,-650.498 196.412,-628.393 206,-612 208.628,-607.507 212.045,-603.532 215.933,-600.023"/>
<polygon fill="black" stroke="black" points="218.152,-602.732 223.908,-593.837 213.861,-597.201 218.152,-602.732"/>
<text text-anchor="middle" x="256" y="-635.4" font-family="Times Roman,serif" font-size="14.00">&lt;5 sec&gt; wait,</text>
<text text-anchor="middle" x="256" y="-617.4" font-family="Times Roman,serif" font-size="14.00">&lt;any&gt; skip</text>
</g>
<!-- farewell -->
<g id="node6" class="node"><title>farewell</title>
<polygon fill="pink" stroke="pink" points="360,-702 286,-702 286,-666 360,-666 360,-702"/>
<text text-anchor="middle" x="323" y="-680.4" font-family="Times Roman,serif" font-size="14.00">Farewell</text>
</g>
<!-- farewell&#45;&gt;system -->
<g id="edge16" class="edge"><title>farewell&#45;&gt;system</title>
<path fill="none" stroke="black" d="M310.876,-702.186C302.26,-715.11 290.547,-732.68 280.863,-747.205"/>
<polygon fill="black" stroke="black" points="277.777,-745.525 275.142,-755.787 283.601,-749.408 277.777,-745.525"/>
<text text-anchor="middle" x="364.5" y="-725.4" font-family="Times Roman,serif" font-size="14.00">&lt;5 sec&gt; wait, skip</text>
</g>
<!-- screensaver_mode -->
<g id="node18" class="node"><title>screensaver_mode</title>
<polygon fill="violet" stroke="violet" points="1148,-594 1006,-594 1006,-558 1148,-558 1148,-594"/>
<text text-anchor="middle" x="1077" y="-572.4" font-family="Times Roman,serif" font-size="14.00">Screensaver mode</text>
</g>
<!-- menu_mode&#45;&gt;screensaver_mode -->
<g id="edge10" class="edge"><title>menu_mode&#45;&gt;screensaver_mode</title>
<path fill="none" stroke="black" stroke-dasharray="1,5" d="M1077,-665.679C1077,-645.699 1077,-613.923 1077,-594.05"/>
</g>
<!-- menu&#45;&gt;farewell -->
<g id="edge24" class="edge"><title>menu&#45;&gt;farewell</title>
<path fill="none" stroke="black" d="M295.149,-594.01C300.827,-599.209 306.271,-605.307 310,-612 317.39,-625.263 320.713,-641.838 322.156,-655.74"/>
<polygon fill="black" stroke="black" points="318.669,-656.05 322.929,-665.751 325.648,-655.511 318.669,-656.05"/>
<text text-anchor="middle" x="373.5" y="-626.4" font-family="Times Roman,serif" font-size="14.00">&lt;escape&gt; quit</text>
</g>
<!-- game -->
<g id="node11" class="node"><title>game</title>
<polygon fill="lightgreen" stroke="lightgreen" points="444,-504 344,-504 344,-468 444,-468 444,-504"/>
<text text-anchor="middle" x="394" y="-482.4" font-family="Times Roman,serif" font-size="14.00">Game menu</text>
</g>
<!-- menu&#45;&gt;game -->
<g id="edge20" class="edge"><title>menu&#45;&gt;game</title>
<path fill="none" stroke="black" d="M316.245,-565.134C341.359,-558.375 369.07,-549.236 378,-540 384.716,-533.054 388.631,-523.425 390.907,-514.219"/>
<polygon fill="black" stroke="black" points="394.388,-514.652 392.842,-504.17 387.514,-513.328 394.388,-514.652"/>
<text text-anchor="middle" x="439" y="-527.4" font-family="Times Roman,serif" font-size="14.00">&lt;enter&gt; open</text>
</g>
<!-- screensaver -->
<g id="node19" class="node"><title>screensaver</title>
<polygon fill="violet" stroke="violet" points="327,-324 227,-324 227,-288 327,-288 327,-324"/>
<text text-anchor="middle" x="277" y="-302.4" font-family="Times Roman,serif" font-size="14.00">Screensaver</text>
</g>
<!-- menu&#45;&gt;screensaver -->
<g id="edge27" class="edge"><title>menu&#45;&gt;screensaver</title>
<path fill="none" stroke="black" d="M262.935,-557.936C261.006,-552.277 259.136,-545.954 258,-540 248.99,-492.801 248.485,-479.839 253,-432 256.204,-398.053 264.162,-359.636 270.04,-334.243"/>
<polygon fill="black" stroke="black" points="273.518,-334.745 272.412,-324.208 266.706,-333.135 273.518,-334.745"/>
<text text-anchor="middle" x="305" y="-437.4" font-family="Times Roman,serif" font-size="14.00">&lt;60 sec&gt; wait</text>
</g>
<!-- game&#45;&gt;menu -->
<g id="edge22" class="edge"><title>game&#45;&gt;menu</title>
<path fill="none" stroke="black" d="M343.664,-493.921C312.434,-499.979 276.501,-509.431 267,-522 261.446,-529.347 260.589,-538.991 261.644,-548.094"/>
<polygon fill="black" stroke="black" points="258.217,-548.806 263.5,-557.99 265.097,-547.516 258.217,-548.806"/>
<text text-anchor="middle" x="320.5" y="-527.4" font-family="Times Roman,serif" font-size="14.00">&lt;escape&gt; back</text>
</g>
<!-- level -->
<g id="node12" class="node"><title>level</title>
<polygon fill="lightgreen" stroke="lightgreen" points="566,-414 470,-414 470,-378 566,-378 566,-414"/>
<text text-anchor="middle" x="518" y="-392.4" font-family="Times Roman,serif" font-size="14.00">Level menu</text>
</g>
<!-- game&#45;&gt;level -->
<g id="edge33" class="edge"><title>game&#45;&gt;level</title>
<path fill="none" stroke="black" d="M387.001,-467.972C383.83,-456.551 382.297,-442.086 390,-432 408.455,-407.837 426.733,-422.239 456,-414 457.416,-413.601 458.85,-413.196 460.296,-412.787"/>
<polygon fill="black" stroke="black" points="461.301,-416.139 469.958,-410.031 459.382,-409.408 461.301,-416.139"/>
<text text-anchor="middle" x="443" y="-437.4" font-family="Times Roman,serif" font-size="14.00">&lt;enter&gt; select</text>
</g>
<!-- game&#45;&gt;screensaver -->
<g id="edge28" class="edge"><title>game&#45;&gt;screensaver</title>
<path fill="none" stroke="black" d="M382.138,-467.75C361.411,-435.863 318.521,-369.878 294.418,-332.797"/>
<polygon fill="black" stroke="black" points="297.104,-330.508 288.72,-324.031 291.235,-334.323 297.104,-330.508"/>
<text text-anchor="middle" x="400" y="-392.4" font-family="Times Roman,serif" font-size="14.00">&lt;60 sec&gt; wait</text>
</g>
<!-- level&#45;&gt;game -->
<g id="edge35" class="edge"><title>level&#45;&gt;game</title>
<path fill="none" stroke="black" d="M514.598,-414.209C511.55,-425.853 505.964,-440.499 496,-450 484.405,-461.056 469.211,-468.741 454.103,-474.074"/>
<polygon fill="black" stroke="black" points="452.675,-470.857 444.227,-477.251 454.818,-477.521 452.675,-470.857"/>
<text text-anchor="middle" x="561.5" y="-437.4" font-family="Times Roman,serif" font-size="14.00">&lt;escape&gt; back</text>
</g>
<!-- countdown -->
<g id="node15" class="node"><title>countdown</title>
<polygon fill="yellow" stroke="yellow" points="481,-324 385,-324 385,-288 481,-288 481,-324"/>
<text text-anchor="middle" x="433" y="-302.4" font-family="Times Roman,serif" font-size="14.00">Countdown</text>
</g>
<!-- level&#45;&gt;countdown -->
<g id="edge37" class="edge"><title>level&#45;&gt;countdown</title>
<path fill="none" stroke="black" d="M512.29,-377.939C508.043,-366.646 501.358,-352.335 492,-342 488.027,-337.612 483.395,-333.579 478.504,-329.926"/>
<polygon fill="black" stroke="black" points="480.324,-326.93 470.102,-324.143 476.355,-332.696 480.324,-326.93"/>
<text text-anchor="middle" x="554" y="-347.4" font-family="Times Roman,serif" font-size="14.00">&lt;enter&gt; start</text>
</g>
<!-- level&#45;&gt;screensaver -->
<g id="edge29" class="edge"><title>level&#45;&gt;screensaver</title>
<path fill="none" stroke="black" d="M469.986,-381.867C465.267,-380.536 460.545,-379.227 456,-378 424.156,-369.4 413.477,-374.802 384,-360 372.71,-354.331 372.815,-348.53 362,-342 353.752,-337.02 344.691,-332.394 335.653,-328.23"/>
<polygon fill="black" stroke="black" points="336.837,-324.927 326.277,-324.063 333.993,-331.323 336.837,-324.927"/>
<text text-anchor="middle" x="436" y="-347.4" font-family="Times Roman,serif" font-size="14.00">&lt;60 sec&gt; wait</text>
</g>
<!-- gameplay_mode -->
<g id="node14" class="node"><title>gameplay_mode</title>
<polygon fill="yellow" stroke="yellow" points="1141,-504 1013,-504 1013,-468 1141,-468 1141,-504"/>
<text text-anchor="middle" x="1077" y="-482.4" font-family="Times Roman,serif" font-size="14.00">Gameplay mode</text>
</g>
<!-- information_mode -->
<g id="node21" class="node"><title>information_mode</title>
<polygon fill="cyan" stroke="cyan" points="1146,-414 1008,-414 1008,-378 1146,-378 1146,-414"/>
<text text-anchor="middle" x="1077" y="-392.4" font-family="Times Roman,serif" font-size="14.00">Information mode</text>
</g>
<!-- gameplay_mode&#45;&gt;information_mode -->
<g id="edge12" class="edge"><title>gameplay_mode&#45;&gt;information_mode</title>
<path fill="none" stroke="black" stroke-dasharray="1,5" d="M1077,-467.787C1077,-452.173 1077,-429.793 1077,-414.186"/>
</g>
<!-- stage -->
<g id="node16" class="node"><title>stage</title>
<polygon fill="yellow" stroke="yellow" points="376,-216 266,-216 266,-180 376,-180 376,-216"/>
<text text-anchor="middle" x="321" y="-194.4" font-family="Times Roman,serif" font-size="14.00">Stage playing</text>
</g>
<!-- countdown&#45;&gt;stage -->
<g id="edge39" class="edge"><title>countdown&#45;&gt;stage</title>
<path fill="none" stroke="black" d="M384.783,-296.197C358.538,-289.785 329.847,-280.638 322,-270 312.864,-257.614 312.284,-240.488 314.144,-226.047"/>
<polygon fill="black" stroke="black" points="317.607,-226.559 315.842,-216.112 310.707,-225.38 317.607,-226.559"/>
<text text-anchor="middle" x="370.5" y="-248.4" font-family="Times Roman,serif" font-size="14.00">&lt;N sec&gt; wait</text>
</g>
<!-- pause -->
<g id="node24" class="node"><title>pause</title>
<polygon fill="cyan" stroke="cyan" points="169,-126 63,-126 63,-90 169,-90 169,-126"/>
<text text-anchor="middle" x="116" y="-104.4" font-family="Times Roman,serif" font-size="14.00">Pause screen</text>
</g>
<!-- countdown&#45;&gt;pause -->
<g id="edge41" class="edge"><title>countdown&#45;&gt;pause</title>
<path fill="none" stroke="black" d="M384.902,-296.45C311.631,-281.051 176.774,-249.1 141,-216 119.342,-195.961 114.659,-161.189 114.386,-136.518"/>
<polygon fill="black" stroke="black" points="117.889,-136.352 114.514,-126.309 110.889,-136.265 117.889,-136.352"/>
<text text-anchor="middle" x="199" y="-194.4" font-family="Times Roman,serif" font-size="14.00">&lt;escape&gt; pause</text>
</g>
<!-- looser -->
<g id="node23" class="node"><title>looser</title>
<polygon fill="cyan" stroke="cyan" points="488,-126 378,-126 378,-90 488,-90 488,-126"/>
<text text-anchor="middle" x="433" y="-104.4" font-family="Times Roman,serif" font-size="14.00">Looser screen</text>
</g>
<!-- stage&#45;&gt;looser -->
<g id="edge45" class="edge"><title>stage&#45;&gt;looser</title>
<path fill="none" stroke="black" d="M349.914,-179.966C358.209,-174.464 367.133,-168.218 375,-162 386.268,-153.094 397.99,-142.472 407.923,-133.015"/>
<polygon fill="black" stroke="black" points="410.367,-135.52 415.133,-126.057 405.507,-130.483 410.367,-135.52"/>
<text text-anchor="middle" x="405.5" y="-149.4" font-family="Times Roman,serif" font-size="14.00">fail</text>
</g>
<!-- stage&#45;&gt;pause -->
<g id="edge47" class="edge"><title>stage&#45;&gt;pause</title>
<path fill="none" stroke="black" d="M265.897,-188.078C211.652,-178.208 136.533,-164.22 134,-162 126.468,-155.399 122.079,-145.562 119.524,-136.085"/>
<polygon fill="black" stroke="black" points="122.908,-135.17 117.41,-126.113 116.06,-136.622 122.908,-135.17"/>
<text text-anchor="middle" x="192" y="-149.4" font-family="Times Roman,serif" font-size="14.00">&lt;escape&gt; pause</text>
</g>
<!-- completion -->
<g id="node25" class="node"><title>completion</title>
<polygon fill="cyan" stroke="cyan" points="613,-126 519,-126 519,-90 613,-90 613,-126"/>
<text text-anchor="middle" x="566" y="-104.4" font-family="Times Roman,serif" font-size="14.00">Completion</text>
</g>
<!-- stage&#45;&gt;completion -->
<g id="edge43" class="edge"><title>stage&#45;&gt;completion</title>
<path fill="none" stroke="black" d="M370.875,-179.924C386.6,-174.209 404.032,-167.856 420,-162 449.377,-151.226 482.045,-139.152 509.019,-129.158"/>
<polygon fill="black" stroke="black" points="510.522,-132.333 518.682,-125.576 508.089,-125.77 510.522,-132.333"/>
<text text-anchor="middle" x="484.5" y="-149.4" font-family="Times Roman,serif" font-size="14.00">pass</text>
</g>
<!-- screensaver_mode&#45;&gt;gameplay_mode -->
<g id="edge11" class="edge"><title>screensaver_mode&#45;&gt;gameplay_mode</title>
<path fill="none" stroke="black" stroke-dasharray="1,5" d="M1077,-557.787C1077,-542.173 1077,-519.793 1077,-504.186"/>
</g>
<!-- screensaver&#45;&gt;menu -->
<g id="edge31" class="edge"><title>screensaver&#45;&gt;menu</title>
<path fill="none" stroke="black" d="M252.803,-324.188C225.7,-346.236 183.303,-386.182 166,-432 148.147,-479.274 195.759,-525.028 232.345,-551.839"/>
<polygon fill="black" stroke="black" points="230.713,-554.973 240.891,-557.913 234.768,-549.267 230.713,-554.973"/>
<text text-anchor="middle" x="207" y="-437.4" font-family="Times Roman,serif" font-size="14.00">&lt;any&gt; skip</text>
</g>
<!-- winner -->
<g id="node22" class="node"><title>winner</title>
<polygon fill="cyan" stroke="cyan" points="685,-36 569,-36 569,-1.77636e-14 685,-3.55271e-15 685,-36"/>
<text text-anchor="middle" x="627" y="-14.4" font-family="Times Roman,serif" font-size="14.00">Winner screen</text>
</g>
<!-- winner&#45;&gt;game -->
<g id="edge63" class="edge"><title>winner&#45;&gt;game</title>
<path fill="none" stroke="black" d="M685.121,-29.9381C710.764,-36.3085 737.103,-44.7386 746,-54 763.177,-71.8795 760,-83.2065 760,-108 760,-396 760,-396 760,-396 760,-458.218 558.036,-477.663 454.163,-483.549"/>
<polygon fill="black" stroke="black" points="453.919,-480.057 444.123,-484.093 454.298,-487.047 453.919,-480.057"/>
<text text-anchor="middle" x="862.5" y="-257.4" font-family="Times Roman,serif" font-size="14.00">&lt;M sec&gt; wait,</text>
<text text-anchor="middle" x="862.5" y="-239.4" font-family="Times Roman,serif" font-size="14.00">&lt;enter&gt; skip congratulations</text>
</g>
<!-- looser&#45;&gt;menu -->
<g id="edge61" class="edge"><title>looser&#45;&gt;menu</title>
<path fill="none" stroke="black" d="M488.2,-120.576C549.521,-136.186 640,-164.838 640,-198 640,-486 640,-486 640,-486 640,-549.754 429.972,-568.529 326.395,-573.911"/>
<polygon fill="black" stroke="black" points="325.928,-570.43 316.113,-574.42 326.273,-577.422 325.928,-570.43"/>
<text text-anchor="middle" x="692.5" y="-347.4" font-family="Times Roman,serif" font-size="14.00">&lt;escape&gt; stop</text>
</g>
<!-- looser&#45;&gt;countdown -->
<g id="edge59" class="edge"><title>looser&#45;&gt;countdown</title>
<path fill="none" stroke="black" d="M433,-126.228C433,-160.819 433,-236.208 433,-277.522"/>
<polygon fill="black" stroke="black" points="429.5,-277.728 433,-287.728 436.5,-277.728 429.5,-277.728"/>
<text text-anchor="middle" x="488.5" y="-194.4" font-family="Times Roman,serif" font-size="14.00">&lt;enter&gt; repeat</text>
</g>
<!-- pause&#45;&gt;menu -->
<g id="edge51" class="edge"><title>pause&#45;&gt;menu</title>
<path fill="none" stroke="black" d="M63.0918,-126.092C32.498,-140.271 0,-163.462 0,-198 0,-486 0,-486 0,-486 0,-530.628 134.434,-557.086 213.583,-568.796"/>
<polygon fill="black" stroke="black" points="213.495,-572.32 223.892,-570.285 214.495,-565.392 213.495,-572.32"/>
<text text-anchor="middle" x="58.5" y="-347.4" font-family="Times Roman,serif" font-size="14.00">&lt;enter&gt; resume</text>
</g>
<!-- pause&#45;&gt;stage -->
<g id="edge49" class="edge"><title>pause&#45;&gt;stage</title>
<path fill="none" stroke="black" d="M169.214,-115.999C194.79,-121.38 225.198,-130.113 250,-144 260.15,-149.683 259.969,-154.668 269,-162 273.979,-166.042 279.392,-170.114 284.783,-173.991"/>
<polygon fill="black" stroke="black" points="282.978,-177 293.17,-179.892 287.006,-171.275 282.978,-177"/>
<text text-anchor="middle" x="320" y="-149.4" font-family="Times Roman,serif" font-size="14.00">&lt;escape&gt; exit</text>
</g>
<!-- completion&#45;&gt;menu -->
<g id="edge55" class="edge"><title>completion&#45;&gt;menu</title>
<path fill="none" stroke="black" d="M613.088,-113.318C721.597,-126.208 980,-160.809 980,-198 980,-486 980,-486 980,-486 980,-551.795 493.937,-570.326 326.151,-574.762"/>
<polygon fill="black" stroke="black" points="325.945,-571.266 316.038,-575.023 326.125,-578.264 325.945,-571.266"/>
<text text-anchor="middle" x="1046.5" y="-347.4" font-family="Times Roman,serif" font-size="14.00">&lt;escape&gt; to menu</text>
</g>
<!-- completion&#45;&gt;countdown -->
<g id="edge53" class="edge"><title>completion&#45;&gt;countdown</title>
<path fill="none" stroke="black" d="M566.851,-126.173C567.082,-148.8 564.696,-187.889 548,-216 531.15,-244.371 501.707,-267.157 476.833,-282.704"/>
<polygon fill="black" stroke="black" points="474.994,-279.725 468.253,-287.898 478.62,-285.713 474.994,-279.725"/>
<text text-anchor="middle" x="578" y="-194.4" font-family="Times Roman,serif" font-size="14.00">next</text>
</g>
<!-- completion&#45;&gt;winner -->
<g id="edge57" class="edge"><title>completion&#45;&gt;winner</title>
<path fill="none" stroke="black" d="M518.739,-91.1097C499.764,-81.6416 484.741,-68.7701 496,-54 504.182,-43.2662 531.23,-34.9347 558.64,-29.0029"/>
<polygon fill="black" stroke="black" points="559.632,-32.372 568.72,-26.926 558.22,-25.516 559.632,-32.372"/>
<text text-anchor="middle" x="621" y="-59.4" font-family="Times Roman,serif" font-size="14.00">&lt;enter&gt; next (all levels are passed)</text>
</g>
</g>
</svg>
