<?xml version="1.0" encoding="UTF-8" standalone="no"?>
<!DOCTYPE svg PUBLIC "-//W3C//DTD SVG 1.1//EN"
 "http://www.w3.org/Graphics/SVG/1.1/DTD/svg11.dtd">
<!-- Generated by graphviz version 2.26.3 (20100126.1600)
 -->
<!-- Title: Workflow Pages: 1 -->
<svg width="347pt" height="566pt"
 viewBox="0.00 0.00 347.00 566.00" xmlns="http://www.w3.org/2000/svg" xmlns:xlink="http://www.w3.org/1999/xlink">
<g id="graph1" class="graph" transform="scale(1 1) rotate(0) translate(4 562)">
<title>Workflow</title>
<polygon fill="white" stroke="white" points="-4,5 -4,-562 344,-562 344,5 -4,5"/>
<!-- system -->
<g id="node2" class="node"><title>system</title>
<polygon fill="white" stroke="black" points="205,-558 137,-558 137,-522 205,-522 205,-558"/>
<text text-anchor="middle" x="171" y="-536.4" font-family="Times Roman,serif" font-size="14.00">System</text>
</g>
<!-- foreword -->
<g id="node4" class="node"><title>foreword</title>
<polygon fill="cornflowerblue" stroke="cornflowerblue" points="104,-450 24,-450 24,-414 104,-414 104,-450"/>
<text text-anchor="middle" x="64" y="-428.4" font-family="Times Roman,serif" font-size="14.00">Foreword</text>
</g>
<!-- system&#45;&gt;foreword -->
<g id="edge12" class="edge"><title>system&#45;&gt;foreword</title>
<path fill="none" stroke="black" d="M136.735,-530.878C121.354,-525.291 104.008,-516.708 92,-504 80.5854,-491.919 73.6607,-474.663 69.5537,-460.073"/>
<polygon fill="black" stroke="black" points="72.8634,-458.881 67.0373,-450.032 66.0734,-460.583 72.8634,-458.881"/>
<text text-anchor="middle" x="109" y="-482.4" font-family="Times Roman,serif" font-size="14.00">start</text>
</g>
<!-- menu -->
<g id="node7" class="node"><title>menu</title>
<polygon fill="lightgreen" stroke="lightgreen" points="199,-342 145,-342 145,-306 199,-306 199,-342"/>
<text text-anchor="middle" x="172" y="-320.4" font-family="Times Roman,serif" font-size="14.00">Menu</text>
</g>
<!-- system&#45;&gt;menu -->
<g id="edge13" class="edge"><title>system&#45;&gt;menu</title>
<path fill="none" stroke="black" d="M164.33,-521.72C156.212,-497.279 144.151,-452.557 149,-414 151.675,-392.732 157.772,-369.288 163.017,-351.66"/>
<polygon fill="black" stroke="black" points="166.389,-352.601 165.974,-342.014 159.697,-350.549 166.389,-352.601"/>
<text text-anchor="middle" x="166" y="-428.4" font-family="Times Roman,serif" font-size="14.00">start</text>
</g>
<!-- foreword&#45;&gt;menu -->
<g id="edge11" class="edge"><title>foreword&#45;&gt;menu</title>
<path fill="none" stroke="black" d="M66.4363,-413.938C69.4524,-397.968 76.0219,-374.95 90,-360 101.933,-347.237 119.192,-338.742 134.801,-333.227"/>
<polygon fill="black" stroke="black" points="136.305,-336.42 144.747,-330.019 134.156,-329.758 136.305,-336.42"/>
<text text-anchor="middle" x="108" y="-383.4" font-family="Times Roman,serif" font-size="14.00">wait,</text>
<text text-anchor="middle" x="108" y="-365.4" font-family="Times Roman,serif" font-size="14.00">skip</text>
</g>
<!-- afterword -->
<g id="node5" class="node"><title>afterword</title>
<polygon fill="cornflowerblue" stroke="cornflowerblue" points="276,-450 192,-450 192,-414 276,-414 276,-450"/>
<text text-anchor="middle" x="234" y="-428.4" font-family="Times Roman,serif" font-size="14.00">Afterword</text>
</g>
<!-- afterword&#45;&gt;system -->
<g id="edge33" class="edge"><title>afterword&#45;&gt;system</title>
<path fill="none" stroke="black" d="M223.471,-450.05C213.463,-467.206 198.281,-493.233 186.818,-512.883"/>
<polygon fill="black" stroke="black" points="183.703,-511.278 181.687,-521.679 189.749,-514.805 183.703,-511.278"/>
<text text-anchor="middle" x="230" y="-491.4" font-family="Times Roman,serif" font-size="14.00">wait,</text>
<text text-anchor="middle" x="230" y="-473.4" font-family="Times Roman,serif" font-size="14.00">skip</text>
</g>
<!-- menu&#45;&gt;system -->
<g id="edge34" class="edge"><title>menu&#45;&gt;system</title>
<path fill="none" stroke="black" d="M199.049,-334.018C213.353,-340.143 230.663,-348.935 244,-360 277.83,-388.064 296.905,-407.688 285,-450 277.382,-477.075 273.141,-485.449 252,-504 241.203,-513.474 227.511,-520.826 214.47,-526.343"/>
<polygon fill="black" stroke="black" points="213.147,-523.102 205.14,-530.04 215.726,-529.61 213.147,-523.102"/>
<text text-anchor="middle" x="301.5" y="-428.4" font-family="Times Roman,serif" font-size="14.00">exit</text>
</g>
<!-- menu&#45;&gt;afterword -->
<g id="edge35" class="edge"><title>menu&#45;&gt;afterword</title>
<path fill="none" stroke="black" d="M182.362,-342.05C192.211,-359.206 207.152,-385.233 218.433,-404.883"/>
<polygon fill="black" stroke="black" points="215.468,-406.749 223.483,-413.679 221.539,-403.264 215.468,-406.749"/>
<text text-anchor="middle" x="226.5" y="-374.4" font-family="Times Roman,serif" font-size="14.00">exit</text>
</g>
<!-- menu&#45;&gt;menu -->
<g id="edge15" class="edge"><title>menu&#45;&gt;menu</title>
<path fill="none" stroke="black" d="M199.241,-334.115C209.024,-334.333 217,-330.961 217,-324 217,-319.758 214.038,-316.849 209.51,-315.273"/>
<polygon fill="black" stroke="black" points="209.62,-311.756 199.241,-313.885 208.682,-318.693 209.62,-311.756"/>
<text text-anchor="middle" x="236.5" y="-329.4" font-family="Times Roman,serif" font-size="14.00">open,</text>
<text text-anchor="middle" x="236.5" y="-311.4" font-family="Times Roman,serif" font-size="14.00">back</text>
</g>
<!-- screensaver -->
<g id="node9" class="node"><title>screensaver</title>
<polygon fill="violet" stroke="violet" points="100,-216 3.55271e-14,-216 0,-180 100,-180 100,-216"/>
<text text-anchor="middle" x="50" y="-194.4" font-family="Times Roman,serif" font-size="14.00">Screensaver</text>
</g>
<!-- menu&#45;&gt;screensaver -->
<g id="edge17" class="edge"><title>menu&#45;&gt;screensaver</title>
<path fill="none" stroke="black" d="M144.864,-318.704C125.877,-313.719 101.122,-304.471 85,-288 68.4991,-271.141 59.5636,-245.625 54.862,-226.062"/>
<polygon fill="black" stroke="black" points="58.258,-225.206 52.718,-216.175 51.417,-226.69 58.258,-225.206"/>
<text text-anchor="middle" x="103" y="-266.4" font-family="Times Roman,serif" font-size="14.00">wait,</text>
<text text-anchor="middle" x="103" y="-248.4" font-family="Times Roman,serif" font-size="14.00">start</text>
</g>
<!-- countdown -->
<g id="node11" class="node"><title>countdown</title>
<polygon fill="yellow" stroke="yellow" points="263,-216 167,-216 167,-180 263,-180 263,-216"/>
<text text-anchor="middle" x="215" y="-194.4" font-family="Times Roman,serif" font-size="14.00">Countdown</text>
</g>
<!-- menu&#45;&gt;countdown -->
<g id="edge23" class="edge"><title>menu&#45;&gt;countdown</title>
<path fill="none" stroke="black" d="M178.161,-305.947C185.313,-284.989 197.192,-250.182 205.522,-225.773"/>
<polygon fill="black" stroke="black" points="208.933,-226.614 208.851,-216.019 202.308,-224.353 208.933,-226.614"/>
<text text-anchor="middle" x="233.5" y="-275.4" font-family="Times Roman,serif" font-size="14.00">start,</text>
<text text-anchor="middle" x="233.5" y="-257.4" font-family="Times Roman,serif" font-size="14.00">resume,</text>
<text text-anchor="middle" x="233.5" y="-239.4" font-family="Times Roman,serif" font-size="14.00">continue</text>
</g>
<!-- screensaver&#45;&gt;menu -->
<g id="edge19" class="edge"><title>screensaver&#45;&gt;menu</title>
<path fill="none" stroke="black" d="M95.416,-216.006C104.55,-220.95 113.603,-226.938 121,-234 126.154,-238.921 144.522,-272.337 157.737,-297.022"/>
<polygon fill="black" stroke="black" points="154.719,-298.8 162.511,-305.978 160.896,-295.507 154.719,-298.8"/>
<text text-anchor="middle" x="167" y="-257.4" font-family="Times Roman,serif" font-size="14.00">skip</text>
</g>
<!-- screensaver&#45;&gt;screensaver -->
<g id="edge21" class="edge"><title>screensaver&#45;&gt;screensaver</title>
<path fill="none" stroke="black" d="M100.114,-205.96C110.518,-205.122 118,-202.469 118,-198 118,-195.137 114.929,-193.019 109.987,-191.647"/>
<polygon fill="black" stroke="black" points="110.546,-188.192 100.114,-190.04 109.422,-195.101 110.546,-188.192"/>
<text text-anchor="middle" x="133.5" y="-194.4" font-family="Times Roman,serif" font-size="14.00">wait</text>
</g>
<!-- game -->
<g id="node13" class="node"><title>game</title>
<polygon fill="salmon" stroke="salmon" points="294,-126 238,-126 238,-90 294,-90 294,-126"/>
<text text-anchor="middle" x="266" y="-104.4" font-family="Times Roman,serif" font-size="14.00">Game</text>
</g>
<!-- countdown&#45;&gt;game -->
<g id="edge25" class="edge"><title>countdown&#45;&gt;game</title>
<path fill="none" stroke="black" d="M225.321,-179.787C232.579,-166.978 242.417,-149.617 250.6,-135.176"/>
<polygon fill="black" stroke="black" points="253.81,-136.612 255.695,-126.186 247.719,-133.16 253.81,-136.612"/>
<text text-anchor="middle" x="261.5" y="-149.4" font-family="Times Roman,serif" font-size="14.00">wait</text>
</g>
<!-- game&#45;&gt;menu -->
<g id="edge27" class="edge"><title>game&#45;&gt;menu</title>
<path fill="none" stroke="black" d="M275.234,-126.243C277.596,-131.801 279.805,-138.025 281,-144 293.602,-207.012 307.268,-237.133 268,-288 260.434,-297.801 232.738,-307.582 209.027,-314.47"/>
<polygon fill="black" stroke="black" points="207.86,-311.162 199.179,-317.236 209.753,-317.901 207.86,-311.162"/>
<text text-anchor="middle" x="316" y="-203.4" font-family="Times Roman,serif" font-size="14.00">pause,</text>
<text text-anchor="middle" x="316" y="-185.4" font-family="Times Roman,serif" font-size="14.00">exit</text>
</g>
<!-- result -->
<g id="node15" class="node"><title>result</title>
<polygon fill="orange" stroke="orange" points="295,-36 237,-36 237,-1.77636e-14 295,-3.55271e-15 295,-36"/>
<text text-anchor="middle" x="266" y="-14.4" font-family="Times Roman,serif" font-size="14.00">Result</text>
</g>
<!-- game&#45;&gt;result -->
<g id="edge29" class="edge"><title>game&#45;&gt;result</title>
<path fill="none" stroke="black" d="M266,-89.7872C266,-77.3443 266,-60.6053 266,-46.4211"/>
<polygon fill="black" stroke="black" points="269.5,-46.1857 266,-36.1858 262.5,-46.1858 269.5,-46.1857"/>
<text text-anchor="middle" x="284.5" y="-59.4" font-family="Times Roman,serif" font-size="14.00">finish</text>
</g>
</g>
</svg>
