<?xml version="1.0" encoding="UTF-8" standalone="no"?>
<!DOCTYPE svg PUBLIC "-//W3C//DTD SVG 1.1//EN"
 "http://www.w3.org/Graphics/SVG/1.1/DTD/svg11.dtd">
<!-- Generated by graphviz version 2.26.3 (20100126.1600)
 -->
<!-- Title: Workflow Pages: 1 -->
<svg width="254pt" height="350pt"
 viewBox="0.00 0.00 254.00 350.00" xmlns="http://www.w3.org/2000/svg" xmlns:xlink="http://www.w3.org/1999/xlink">
<g id="graph1" class="graph" transform="scale(1 1) rotate(0) translate(4 346)">
<title>Workflow</title>
<polygon fill="white" stroke="white" points="-4,5 -4,-346 251,-346 251,5 -4,5"/>
<!-- system -->
<g id="node2" class="node"><title>system</title>
<polygon fill="white" stroke="black" points="145,-342 77,-342 77,-306 145,-306 145,-342"/>
<text text-anchor="middle" x="111" y="-320.4" font-family="Times Roman,serif" font-size="14.00">System</text>
</g>
<!-- introduction -->
<g id="node4" class="node"><title>introduction</title>
<polygon fill="cyan" stroke="cyan" points="100,-252 3.55271e-14,-252 0,-216 100,-216 100,-252"/>
<text text-anchor="middle" x="50" y="-230.4" font-family="Times Roman,serif" font-size="14.00">Introduction</text>
</g>
<!-- system&#45;&gt;introduction -->
<g id="edge10" class="edge"><title>system&#45;&gt;introduction</title>
<path fill="none" stroke="black" d="M98.6557,-305.787C89.8915,-292.856 77.9826,-275.286 68.1404,-260.765"/>
<polygon fill="black" stroke="black" points="70.8337,-258.5 62.3259,-252.186 65.0392,-262.427 70.8337,-258.5"/>
<text text-anchor="middle" x="103" y="-275.4" font-family="Times Roman,serif" font-size="14.00">start</text>
</g>
<!-- menu -->
<g id="node6" class="node"><title>menu</title>
<polygon fill="lightgreen" stroke="lightgreen" points="131,-162 77,-162 77,-126 131,-126 131,-162"/>
<text text-anchor="middle" x="104" y="-140.4" font-family="Times Roman,serif" font-size="14.00">Menu</text>
</g>
<!-- system&#45;&gt;menu -->
<g id="edge11" class="edge"><title>system&#45;&gt;menu</title>
<path fill="none" stroke="black" d="M117.666,-305.928C119.441,-300.268 121.112,-293.946 122,-288 126.192,-259.933 123.669,-233.197 114,-180 113.516,-177.339 112.925,-174.591 112.274,-171.853"/>
<polygon fill="black" stroke="black" points="115.657,-170.953 109.74,-162.165 108.884,-172.725 115.657,-170.953"/>
<text text-anchor="middle" x="140" y="-230.4" font-family="Times Roman,serif" font-size="14.00">start</text>
</g>
<!-- introduction&#45;&gt;menu -->
<g id="edge9" class="edge"><title>introduction&#45;&gt;menu</title>
<path fill="none" stroke="black" d="M60.9277,-215.787C68.6862,-202.856 79.2285,-185.286 87.9413,-170.765"/>
<polygon fill="black" stroke="black" points="90.9448,-172.561 93.0885,-162.186 84.9423,-168.96 90.9448,-172.561"/>
<text text-anchor="middle" x="96" y="-185.4" font-family="Times Roman,serif" font-size="14.00">skip</text>
</g>
<!-- menu&#45;&gt;menu -->
<g id="edge13" class="edge"><title>menu&#45;&gt;menu</title>
<path fill="none" stroke="black" d="M131.241,-152.242C141.024,-152.419 149,-149.672 149,-144 149,-140.544 146.038,-138.173 141.51,-136.889"/>
<polygon fill="black" stroke="black" points="141.564,-133.374 131.241,-135.758 140.797,-140.332 141.564,-133.374"/>
<text text-anchor="middle" x="168.5" y="-149.4" font-family="Times Roman,serif" font-size="14.00">open,</text>
<text text-anchor="middle" x="168.5" y="-131.4" font-family="Times Roman,serif" font-size="14.00">back</text>
</g>
<!-- screensaver -->
<g id="node8" class="node"><title>screensaver</title>
<polygon fill="violet" stroke="violet" points="103,-36 3,-36 3,-1.77636e-14 103,-3.55271e-15 103,-36"/>
<text text-anchor="middle" x="53" y="-14.4" font-family="Times Roman,serif" font-size="14.00">Screensaver</text>
</g>
<!-- menu&#45;&gt;screensaver -->
<g id="edge15" class="edge"><title>menu&#45;&gt;screensaver</title>
<path fill="none" stroke="black" d="M76.9649,-140.126C57.7776,-135.81 33.3236,-126.778 21,-108 7.83187,-87.9351 12.4709,-76.4333 21,-54 22.3262,-50.512 24.1623,-47.1461 26.2904,-43.9657"/>
<polygon fill="black" stroke="black" points="29.0881,-46.0695 32.4555,-36.0241 23.5586,-41.777 29.0881,-46.0695"/>
<text text-anchor="middle" x="39" y="-86.4" font-family="Times Roman,serif" font-size="14.00">wait,</text>
<text text-anchor="middle" x="39" y="-68.4" font-family="Times Roman,serif" font-size="14.00">start</text>
</g>
<!-- game -->
<g id="node10" class="node"><title>game</title>
<polygon fill="yellow" stroke="yellow" points="184,-36 128,-36 128,-1.77636e-14 184,-3.55271e-15 184,-36"/>
<text text-anchor="middle" x="156" y="-14.4" font-family="Times Roman,serif" font-size="14.00">Game</text>
</g>
<!-- menu&#45;&gt;game -->
<g id="edge19" class="edge"><title>menu&#45;&gt;game</title>
<path fill="none" stroke="black" d="M107.683,-125.791C111.856,-107.156 119.595,-77.6581 131,-54 132.454,-50.9841 134.147,-47.9415 135.953,-44.9703"/>
<polygon fill="black" stroke="black" points="139.035,-46.6525 141.588,-36.3698 133.18,-42.816 139.035,-46.6525"/>
<text text-anchor="middle" x="161.5" y="-95.4" font-family="Times Roman,serif" font-size="14.00">start,</text>
<text text-anchor="middle" x="161.5" y="-77.4" font-family="Times Roman,serif" font-size="14.00">resume,</text>
<text text-anchor="middle" x="161.5" y="-59.4" font-family="Times Roman,serif" font-size="14.00">continue</text>
</g>
<!-- screensaver&#45;&gt;menu -->
<g id="edge17" class="edge"><title>screensaver&#45;&gt;menu</title>
<path fill="none" stroke="black" d="M56.776,-36.165C61.0229,-54.7646 68.8196,-84.2347 80,-108 81.4839,-111.154 83.2185,-114.348 85.0641,-117.463"/>
<polygon fill="black" stroke="black" points="82.1288,-119.37 90.4434,-125.936 88.0385,-115.618 82.1288,-119.37"/>
<text text-anchor="middle" x="94" y="-77.4" font-family="Times Roman,serif" font-size="14.00">skip</text>
</g>
<!-- game&#45;&gt;menu -->
<g id="edge21" class="edge"><title>game&#45;&gt;menu</title>
<path fill="none" stroke="black" d="M179.441,-36.0051C184.536,-41.2038 189.226,-47.3039 192,-54 201.184,-76.1731 205.377,-88.074 192,-108 180.666,-124.883 159.863,-133.853 141.328,-138.617"/>
<polygon fill="black" stroke="black" points="140.333,-135.254 131.339,-140.855 141.863,-142.084 140.333,-135.254"/>
<text text-anchor="middle" x="223" y="-86.4" font-family="Times Roman,serif" font-size="14.00">pause,</text>
<text text-anchor="middle" x="223" y="-68.4" font-family="Times Roman,serif" font-size="14.00">exit</text>
</g>
</g>
</svg>
