<?xml version="1.0" encoding="UTF-8" standalone="no"?>
<!-- Created with Inkscape (http://www.inkscape.org/) -->

<svg
   xmlns:dc="http://purl.org/dc/elements/1.1/"
   xmlns:cc="http://creativecommons.org/ns#"
   xmlns:rdf="http://www.w3.org/1999/02/22-rdf-syntax-ns#"
   xmlns:svg="http://www.w3.org/2000/svg"
   xmlns="http://www.w3.org/2000/svg"
   xmlns:sodipodi="http://sodipodi.sourceforge.net/DTD/sodipodi-0.dtd"
   xmlns:inkscape="http://www.inkscape.org/namespaces/inkscape"
   width="85"
   height="85"
   id="svg2"
   version="1.1"
   inkscape:version="0.48.3.1 r9886"
   sodipodi:docname="rhomb.svg"
   inkscape:export-filename="/home/patty/Projects/My/Games/Points/documents/rhomb.png"
   inkscape:export-xdpi="800"
   inkscape:export-ydpi="800">
  <defs
     id="defs4" />
  <sodipodi:namedview
     id="base"
     pagecolor="#ffffff"
     bordercolor="#666666"
     borderopacity="1.0"
     inkscape:pageopacity="1"
     inkscape:pageshadow="2"
     inkscape:zoom="5.6568543"
     inkscape:cx="44.460478"
     inkscape:cy="34.688239"
     inkscape:document-units="px"
     inkscape:current-layer="layer1"
     showgrid="true"
     inkscape:window-width="1920"
     inkscape:window-height="1056"
     inkscape:window-x="1366"
     inkscape:window-y="24"
     inkscape:window-maximized="1"
     fit-margin-top="2"
     fit-margin-right="2"
     fit-margin-bottom="2"
     fit-margin-left="2">
    <inkscape:grid
       type="xygrid"
       id="grid2985"
       empspacing="5"
       visible="true"
       enabled="true"
       snapvisiblegridlinesonly="true"
       originx="-257.5px"
       originy="-592.5px" />
  </sodipodi:namedview>
  <metadata
     id="metadata7">
    <rdf:RDF>
      <cc:Work
         rdf:about="">
        <dc:format>image/svg+xml</dc:format>
        <dc:type
           rdf:resource="http://purl.org/dc/dcmitype/StillImage" />
        <dc:title></dc:title>
      </cc:Work>
    </rdf:RDF>
  </metadata>
  <g
     inkscape:label="Layer 1"
     inkscape:groupmode="layer"
     id="layer1"
     transform="translate(-257.5,-374.86218)">
    <path
       inkscape:connector-curvature="0"
       d="m 305,392.36218 0,5 5,0 0,-5 -5,0 z m 5,0 5,0 0,-5 -5,0 0,5 z m 0,0 0,5 5,0 0,-5 -5,0 z m 5,0 5,0 0,-5 -5,0 0,5 z m 0,0 0,5 5,0 0,-5 -5,0 z m 5,0 5,0 0,-5 -5,0 0,5 z m 0,0 0,5 5,0 0,-5 -5,0 z m 5,0 5,0 0,-5 -5,0 0,5 z m 0,0 0,5 5,0 0,-5 -5,0 z m 5,0 5,0 0,-5 -5,0 0,5 z m 0,0 0,5 5,0 0,-5 -5,0 z m 5,0 0,5 5,0 0,-5 -5,0 z m -10,-15 -5,0 0,5 5,0 0,-5 z m 0,5 0,5 5,0 0,-5 -5,0 z m 0,0 -5,0 0,5 5,0 0,-5 z m -5,5 0,-5 -5,0 0,5 5,0 z m 15,15 0,-5 -5,0 0,5 5,0 z m -5,0 -5,0 0,5 5,0 0,-5 z m 0,0 0,-5 -5,0 0,5 5,0 z m -5,0 -5,0 0,5 5,0 0,-5 z m 0,0 0,-5 -5,0 0,5 5,0 z m -5,0 -5,0 0,5 5,0 0,-5 z m 0,0 0,-5 -5,0 0,5 5,0 z m -5,0 0,-5 -5,0 0,5 5,0 z m 5,10 5,0 0,-5 -5,0 0,5 z"
       style="fill:none;stroke:#000000;stroke-width:0.3;stroke-linecap:butt;stroke-linejoin:miter;stroke-miterlimit:4;stroke-opacity:1;stroke-dasharray:none"
       id="path6451" />
    <path
       inkscape:connector-curvature="0"
       d="m 305,437.36218 0,5 5,0 0,-5 -5,0 z m 5,0 5,0 0,-5 -5,0 0,5 z m 0,0 0,5 5,0 0,-5 -5,0 z m 5,0 5,0 0,-5 -5,0 0,5 z m 0,0 0,5 5,0 0,-5 -5,0 z m 5,0 5,0 0,-5 -5,0 0,5 z m 0,0 0,5 5,0 0,-5 -5,0 z m 5,0 5,0 0,-5 -5,0 0,5 z m 0,0 0,5 5,0 0,-5 -5,0 z m 5,0 5,0 0,-5 -5,0 0,5 z m 0,0 0,5 5,0 0,-5 -5,0 z m 5,0 0,5 5,0 0,-5 -5,0 z m -10,-15 -5,0 0,5 5,0 0,-5 z m 0,5 0,5 5,0 0,-5 -5,0 z m 0,0 -5,0 0,5 5,0 0,-5 z m -5,5 0,-5 -5,0 0,5 5,0 z m 15,15 0,-5 -5,0 0,5 5,0 z m -5,0 -5,0 0,5 5,0 0,-5 z m 0,0 0,-5 -5,0 0,5 5,0 z m -5,0 -5,0 0,5 5,0 0,-5 z m 0,0 0,-5 -5,0 0,5 5,0 z m -5,0 -5,0 0,5 5,0 0,-5 z m 0,0 0,-5 -5,0 0,5 5,0 z m -5,0 0,-5 -5,0 0,5 5,0 z m 5,10 5,0 0,-5 -5,0 0,5 z"
       style="fill:none;stroke:#000000;stroke-width:0.3;stroke-linecap:butt;stroke-linejoin:miter;stroke-miterlimit:4;stroke-opacity:1;stroke-dasharray:none"
       id="path6453" />
    <path
       inkscape:connector-curvature="0"
       d="m 260,437.36218 0,5 5,0 0,-5 -5,0 z m 5,0 5,0 0,-5 -5,0 0,5 z m 0,0 0,5 5,0 0,-5 -5,0 z m 5,0 5,0 0,-5 -5,0 0,5 z m 0,0 0,5 5,0 0,-5 -5,0 z m 5,0 5,0 0,-5 -5,0 0,5 z m 0,0 0,5 5,0 0,-5 -5,0 z m 5,0 5,0 0,-5 -5,0 0,5 z m 0,0 0,5 5,0 0,-5 -5,0 z m 5,0 5,0 0,-5 -5,0 0,5 z m 0,0 0,5 5,0 0,-5 -5,0 z m 5,0 0,5 5,0 0,-5 -5,0 z m -10,-15 -5,0 0,5 5,0 0,-5 z m 0,5 0,5 5,0 0,-5 -5,0 z m 0,0 -5,0 0,5 5,0 0,-5 z m -5,5 0,-5 -5,0 0,5 5,0 z m 15,15 0,-5 -5,0 0,5 5,0 z m -5,0 -5,0 0,5 5,0 0,-5 z m 0,0 0,-5 -5,0 0,5 5,0 z m -5,0 -5,0 0,5 5,0 0,-5 z m 0,0 0,-5 -5,0 0,5 5,0 z m -5,0 -5,0 0,5 5,0 0,-5 z m 0,0 0,-5 -5,0 0,5 5,0 z m -5,0 0,-5 -5,0 0,5 5,0 z m 5,10 5,0 0,-5 -5,0 0,5 z"
       style="fill:none;stroke:#000000;stroke-width:0.3;stroke-linecap:butt;stroke-linejoin:miter;stroke-miterlimit:4;stroke-opacity:1;stroke-dasharray:none"
       id="path6455" />
    <path
       id="path6396"
       style="fill:none;stroke:#000000;stroke-width:0.3;stroke-linecap:butt;stroke-linejoin:miter;stroke-miterlimit:4;stroke-opacity:1;stroke-dasharray:none"
       d="m 260,392.36218 0,5 5,0 0,-5 -5,0 z m 5,0 5,0 0,-5 -5,0 0,5 z m 0,0 0,5 5,0 0,-5 -5,0 z m 5,0 5,0 0,-5 -5,0 0,5 z m 0,0 0,5 5,0 0,-5 -5,0 z m 5,0 5,0 0,-5 -5,0 0,5 z m 0,0 0,5 5,0 0,-5 -5,0 z m 5,0 5,0 0,-5 -5,0 0,5 z m 0,0 0,5 5,0 0,-5 -5,0 z m 5,0 5,0 0,-5 -5,0 0,5 z m 0,0 0,5 5,0 0,-5 -5,0 z m 5,0 0,5 5,0 0,-5 -5,0 z m -10,-15 -5,0 0,5 5,0 0,-5 z m 0,5 0,5 5,0 0,-5 -5,0 z m 0,0 -5,0 0,5 5,0 0,-5 z m -5,5 0,-5 -5,0 0,5 5,0 z m 15,15 0,-5 -5,0 0,5 5,0 z m -5,0 -5,0 0,5 5,0 0,-5 z m 0,0 0,-5 -5,0 0,5 5,0 z m -5,0 -5,0 0,5 5,0 0,-5 z m 0,0 0,-5 -5,0 0,5 5,0 z m -5,0 -5,0 0,5 5,0 0,-5 z m 0,0 0,-5 -5,0 0,5 5,0 z m -5,0 0,-5 -5,0 0,5 5,0 z m 5,10 5,0 0,-5 -5,0 0,5 z"
       inkscape:connector-curvature="0" />
    <path
       style="fill:none;stroke:#000000;stroke-width:1px;stroke-linecap:butt;stroke-linejoin:miter;stroke-opacity:1"
       d="m 280,377.36218 -5,0 0,5 -5,0 0,5 -5,0 0,5 -5,0 0,5 5,0 0,5 5,0 0,5 5,0 0,5 5,0 0,-5 5,0 0,-5 5,0 0,-5 5,0 0,-5 -5,0 0,-5 -5,0 0,-5 -5,0 z"
       id="path3035"
       inkscape:connector-curvature="0" />
    <path
       style="fill:none;stroke:#000000;stroke-width:1px;stroke-linecap:butt;stroke-linejoin:miter;stroke-opacity:1"
       d="m 325,377.36218 -5,0 0,5 -5,0 0,5 -5,0 0,5 -5,0 0,5 5,0 0,5 5,0 0,5 5,0 0,5 5,0 0,-5 5,0 0,-5 5,0 0,-5 5,0 0,-5 -5,0 0,-5 -5,0 0,-5 -5,0 z"
       id="path3035-3"
       inkscape:connector-curvature="0" />
    <path
       style="fill:none;stroke:#800000;stroke-width:1px;stroke-linecap:square;stroke-linejoin:miter;stroke-opacity:1"
       d="m 310,393.36218 0,3"
       id="path3055"
       inkscape:connector-curvature="0" />
    <path
       style="fill:none;stroke:#800000;stroke-width:1;stroke-linecap:square;stroke-linejoin:miter;stroke-miterlimit:0;stroke-opacity:1;stroke-dasharray:none;marker-start:none"
       d="m 321,382.36218 3,0"
       id="path3057"
       inkscape:connector-curvature="0" />
    <path
       style="fill:none;stroke:#800000;stroke-width:0.99999964px;stroke-linecap:square;stroke-linejoin:miter;stroke-opacity:1"
       d="m 335,393.36192 0,3.00026"
       id="path3059"
       inkscape:connector-curvature="0" />
    <path
       id="path3059-1"
       style="fill:none;stroke:#000000;stroke-width:1;stroke-linecap:butt;stroke-linejoin:miter;stroke-miterlimit:4;stroke-opacity:1;stroke-dasharray:none"
       d="m 290,437.36218 0,5 m -15,-15 5,0 m -15,10 0,5 m 15,-20 -5,0 0,5 -5,0 0,5 -5,0 0,5 -5,0 0,5 5,0 0,5 5,0 0,5 5,0 0,5 5,0 0,-5 5,0 0,-5 5,0 0,-5 5,0 0,-5 -5,0 0,-5 -5,0 0,-5 -5,0 z"
       inkscape:connector-curvature="0" />
    <path
       style="fill:#000080;stroke:#000080;stroke-width:1px;stroke-linecap:square;stroke-linejoin:miter;stroke-opacity:1"
       d="m 276,452.36218 3,0"
       id="path3110"
       inkscape:connector-curvature="0" />
    <path
       style="fill:none;stroke:#000080;stroke-width:1px;stroke-linecap:square;stroke-linejoin:miter;stroke-opacity:1"
       d="m 271,432.36218 4,0 0,-4"
       id="path3919"
       inkscape:connector-curvature="0" />
    <path
       id="path3919-0"
       style="fill:none;stroke:#000000;stroke-width:1px;stroke-linecap:square;stroke-linejoin:miter;stroke-opacity:1"
       d="m 316,432.36218 4,0 0,-4 m 15,9 0,5 m -15,-15 5,0 m -15,10 0,5 m 15,-20 -5,0 0,5 -5,0 0,5 -5,0 0,5 -5,0 0,5 5,0 0,5 5,0 0,5 5,0 0,5 5,0 0,-5 5,0 0,-5 5,0 0,-5 5,0 0,-5 -5,0 0,-5 -5,0 0,-5 -5,0 z m -4,30 3,0"
       inkscape:connector-curvature="0" />
    <path
       style="fill:#800000;fill-opacity:1;stroke:none"
       d="m 335.5,439.86218 0,-2 2,0 2,0 0,2 0,2 -2,0 -2,0 0,-2 z"
       id="path3913-0-0"
       inkscape:connector-curvature="0" />
    <path
       style="fill:#000080;fill-opacity:1;stroke:none"
       d="m 315.5,429.86218 0,-2 2,0 2,0 0,2 0,2 -2,0 -2,0 0,-2 z"
       id="path3913-02-9"
       inkscape:connector-curvature="0" />
    <path
       style="fill:none;stroke:#800000;stroke-width:1px;stroke-linecap:square;stroke-linejoin:miter;stroke-opacity:1"
       d="m 330,433.36218 0,4 4,0"
       id="path4239"
       inkscape:connector-curvature="0" />
    <path
       style="fill:none;stroke:#800000;stroke-width:1px;stroke-linecap:butt;stroke-linejoin:miter;stroke-opacity:1"
       d="m 320,442.36218 5,0"
       id="path4241"
       inkscape:connector-curvature="0" />
    <g
       id="g6088">
      <g
         transform="matrix(0,1,-1,0,672.36218,117.36218)"
         id="g6068" />
    </g>
    <path
       style="fill:#800000;fill-opacity:1;stroke:none"
       d="m 305.5,439.86218 0,-2 2,0 2,0 0,2 0,2 -2,0 -2,0 0,-2 z"
       id="path3913-0-0-2"
       inkscape:connector-curvature="0" />
    <path
       style="fill:#800000;fill-opacity:1;stroke:none"
       d="m 320.5,424.86218 0,-2 2,0 2,0 0,2 0,2 -2,0 -2,0 0,-2 z"
       id="path3913-0-0-4"
       inkscape:connector-curvature="0" />
    <path
       style="fill:#800000;fill-opacity:1;stroke:none"
       d="m 275.5,424.86218 0,-2 2,0 2,0 0,2 0,2 -2,0 -2,0 0,-2 z"
       id="path3913-0-0-5"
       inkscape:connector-curvature="0" />
    <path
       style="fill:#800000;fill-opacity:1;stroke:none"
       d="m 260.5,439.86218 0,-2 2,0 2,0 0,2 0,2 -2,0 -2,0 0,-2 z"
       id="path3913-0-0-0"
       inkscape:connector-curvature="0" />
    <path
       style="fill:#800000;fill-opacity:1;stroke:none"
       d="m 290.5,439.86218 0,-2 2,0 2,0 0,2 0,2 -2,0 -2,0 0,-2 z"
       id="path3913-0-0-48"
       inkscape:connector-curvature="0" />
    <path
       style="fill:#000080;fill-opacity:1;stroke:none"
       d="m 320.5,454.86218 0,-2 2,0 2,0 0,2 0,2 -2,0 -2,0 0,-2 z"
       id="path3913-02-9-5"
       inkscape:connector-curvature="0" />
  </g>
</svg>
