<?xml version="1.0" encoding="UTF-8" standalone="no"?>
<!DOCTYPE svg PUBLIC "-//W3C//DTD SVG 1.1//EN"
 "http://www.w3.org/Graphics/SVG/1.1/DTD/svg11.dtd">
<!-- Generated by graphviz version 2.28.0 (20110507.0327)
 -->
<!-- Title: Game Pages: 1 -->
<svg width="2325pt" height="3117pt"
 viewBox="0.00 0.00 558.00 748.00" xmlns="http://www.w3.org/2000/svg" xmlns:xlink="http://www.w3.org/1999/xlink">
<g id="graph1" class="graph" transform="scale(4.16667 4.16667) rotate(0) translate(4 744)">
<title>Game</title>
<polygon fill="white" stroke="white" points="-4,5 -4,-744 555,-744 555,5 -4,5"/>
<!-- system -->
<g id="node2" class="node"><title>system</title>
<polygon fill="white" stroke="black" points="352,-740 294,-740 294,-704 352,-704 352,-740"/>
<text text-anchor="middle" x="323" y="-718.3" font-family="Times New Roman,serif" font-size="14.00">System</text>
</g>
<!-- introductory -->
<g id="node4" class="node"><title>introductory</title>
<polygon fill="pink" stroke="pink" points="320.25,-652 233.75,-652 233.75,-616 320.25,-616 320.25,-652"/>
<text text-anchor="middle" x="277" y="-630.3" font-family="Times New Roman,serif" font-size="14.00">Introductory</text>
</g>
<!-- system&#45;&gt;introductory -->
<g id="edge51" class="edge"><title>system&#45;&gt;introductory</title>
<path fill="none" stroke="black" d="M313.691,-703.597C307.164,-691.394 298.324,-674.867 290.957,-661.093"/>
<polygon fill="black" stroke="black" points="293.941,-659.251 286.138,-652.084 287.768,-662.553 293.941,-659.251"/>
<text text-anchor="middle" x="314.5" y="-674.3" font-family="Times New Roman,serif" font-size="14.00">run</text>
</g>
<!-- menu -->
<g id="node7" class="node"><title>menu</title>
<polygon fill="green" stroke="green" points="364,-564 286,-564 286,-528 364,-528 364,-564"/>
<text text-anchor="middle" x="325" y="-542.3" font-family="Times New Roman,serif" font-size="14.00">Main menu</text>
</g>
<!-- introductory&#45;&gt;menu -->
<g id="edge8" class="edge"><title>introductory&#45;&gt;menu</title>
<path fill="none" stroke="black" d="M277.233,-615.997C278.024,-605.61 280.237,-592.375 286,-582 288.087,-578.242 290.733,-574.679 293.659,-571.367"/>
<polygon fill="black" stroke="black" points="296.296,-573.679 300.867,-564.121 291.333,-568.743 296.296,-573.679"/>
<text text-anchor="middle" x="313" y="-586.3" font-family="Times New Roman,serif" font-size="14.00">wait, skip</text>
</g>
<!-- farewell -->
<g id="node5" class="node"><title>farewell</title>
<polygon fill="pink" stroke="pink" points="401.25,-652 338.75,-652 338.75,-616 401.25,-616 401.25,-652"/>
<text text-anchor="middle" x="370" y="-630.3" font-family="Times New Roman,serif" font-size="14.00">Farewell</text>
</g>
<!-- farewell&#45;&gt;system -->
<g id="edge53" class="edge"><title>farewell&#45;&gt;system</title>
<path fill="none" stroke="black" d="M360.663,-652.084C354.036,-664.211 345.012,-680.723 337.458,-694.545"/>
<polygon fill="black" stroke="black" points="334.236,-693.143 332.511,-703.597 340.378,-696.5 334.236,-693.143"/>
<text text-anchor="middle" x="363" y="-674.3" font-family="Times New Roman,serif" font-size="14.00">skip</text>
</g>
<!-- menu&#45;&gt;farewell -->
<g id="edge14" class="edge"><title>menu&#45;&gt;farewell</title>
<path fill="none" stroke="black" d="M333.939,-564.084C340.285,-576.211 348.925,-592.723 356.157,-606.545"/>
<polygon fill="black" stroke="black" points="353.156,-608.359 360.894,-615.597 359.358,-605.114 353.156,-608.359"/>
<text text-anchor="middle" x="363" y="-586.3" font-family="Times New Roman,serif" font-size="14.00">quit</text>
</g>
<!-- game -->
<g id="node8" class="node"><title>game</title>
<polygon fill="green" stroke="green" points="243.25,-476 160.75,-476 160.75,-440 243.25,-440 243.25,-476"/>
<text text-anchor="middle" x="202" y="-454.3" font-family="Times New Roman,serif" font-size="14.00">Game menu</text>
</g>
<!-- menu&#45;&gt;game -->
<g id="edge10" class="edge"><title>menu&#45;&gt;game</title>
<path fill="none" stroke="black" d="M285.869,-540.89C247.788,-535.988 193.839,-526.333 181,-510 175.203,-502.625 176.918,-493.425 181.245,-484.878"/>
<polygon fill="black" stroke="black" points="184.254,-486.666 186.494,-476.311 178.285,-483.009 184.254,-486.666"/>
<text text-anchor="middle" x="217" y="-498.3" font-family="Times New Roman,serif" font-size="14.00">&lt;enter&gt; start</text>
</g>
<!-- screensaver -->
<g id="node14" class="node"><title>screensaver</title>
<polygon fill="violet" stroke="violet" points="398,-300 314,-300 314,-264 398,-264 398,-300"/>
<text text-anchor="middle" x="356" y="-278.3" font-family="Times New Roman,serif" font-size="14.00">Screensaver</text>
</g>
<!-- menu&#45;&gt;screensaver -->
<g id="edge17" class="edge"><title>menu&#45;&gt;screensaver</title>
<path fill="none" stroke="black" d="M364.003,-531.586C373.953,-526.348 383.626,-519.305 390,-510 412.275,-477.482 398.551,-461.339 401,-422 403.888,-375.61 410.118,-359.901 390,-318 388.276,-314.408 386.037,-310.955 383.532,-307.711"/>
<polygon fill="black" stroke="black" points="386.111,-305.343 376.895,-300.116 380.84,-309.949 386.111,-305.343"/>
<text text-anchor="middle" x="414.5" y="-410.3" font-family="Times New Roman,serif" font-size="14.00">wait</text>
</g>
<!-- game&#45;&gt;menu -->
<g id="edge12" class="edge"><title>game&#45;&gt;menu</title>
<path fill="none" stroke="black" d="M226.953,-476.016C235.258,-481.708 244.544,-488.104 253,-494 266.068,-503.112 280.401,-513.237 292.815,-522.049"/>
<polygon fill="black" stroke="black" points="290.884,-524.971 301.063,-527.911 294.939,-519.265 290.884,-524.971"/>
<text text-anchor="middle" x="318" y="-498.3" font-family="Times New Roman,serif" font-size="14.00">&lt;escape&gt; back</text>
</g>
<!-- level -->
<g id="node9" class="node"><title>level</title>
<polygon fill="green" stroke="green" points="272,-388 192,-388 192,-352 272,-352 272,-388"/>
<text text-anchor="middle" x="232" y="-366.3" font-family="Times New Roman,serif" font-size="14.00">Level menu</text>
</g>
<!-- game&#45;&gt;level -->
<g id="edge23" class="edge"><title>game&#45;&gt;level</title>
<path fill="none" stroke="black" d="M160.558,-446.721C134.961,-438.277 109.39,-424.665 123,-406 136.496,-387.492 159.931,-378.555 181.622,-374.322"/>
<polygon fill="black" stroke="black" points="182.455,-377.732 191.749,-372.646 181.312,-370.826 182.455,-377.732"/>
<text text-anchor="middle" x="162.5" y="-410.3" font-family="Times New Roman,serif" font-size="14.00">&lt;enter&gt; select</text>
</g>
<!-- game&#45;&gt;screensaver -->
<g id="edge18" class="edge"><title>game&#45;&gt;screensaver</title>
<path fill="none" stroke="black" d="M243.373,-452.685C265.737,-448.328 292.315,-439.576 310,-422 318.137,-413.913 337.673,-348.109 348.485,-310.012"/>
<polygon fill="black" stroke="black" points="351.942,-310.647 351.286,-300.072 345.205,-308.748 351.942,-310.647"/>
<text text-anchor="middle" x="347.5" y="-366.3" font-family="Times New Roman,serif" font-size="14.00">wait</text>
</g>
<!-- level&#45;&gt;game -->
<g id="edge25" class="edge"><title>level&#45;&gt;game</title>
<path fill="none" stroke="black" d="M226.04,-388.084C221.851,-400.094 216.161,-416.406 211.368,-430.145"/>
<polygon fill="black" stroke="black" points="208.06,-429.002 208.071,-439.597 214.669,-431.307 208.06,-429.002"/>
<text text-anchor="middle" x="263" y="-410.3" font-family="Times New Roman,serif" font-size="14.00">&lt;escape&gt; back</text>
</g>
<!-- countdown -->
<g id="node11" class="node"><title>countdown</title>
<polygon fill="yellow" stroke="yellow" points="285.25,-300 202.75,-300 202.75,-264 285.25,-264 285.25,-300"/>
<text text-anchor="middle" x="244" y="-278.3" font-family="Times New Roman,serif" font-size="14.00">Countdown</text>
</g>
<!-- level&#45;&gt;countdown -->
<g id="edge27" class="edge"><title>level&#45;&gt;countdown</title>
<path fill="none" stroke="black" d="M233.244,-351.948C234.076,-342.014 235.326,-329.264 237,-318 237.383,-315.426 237.828,-312.754 238.306,-310.086"/>
<polygon fill="black" stroke="black" points="241.788,-310.511 240.24,-300.03 234.914,-309.189 241.788,-310.511"/>
<text text-anchor="middle" x="249" y="-322.3" font-family="Times New Roman,serif" font-size="14.00">play</text>
</g>
<!-- level&#45;&gt;screensaver -->
<g id="edge19" class="edge"><title>level&#45;&gt;screensaver</title>
<path fill="none" stroke="black" d="M248.653,-351.664C259.3,-341.151 273.743,-327.901 288,-318 294.671,-313.367 302.037,-308.95 309.384,-304.909"/>
<polygon fill="black" stroke="black" points="311.434,-307.784 318.627,-300.006 308.153,-301.6 311.434,-307.784"/>
<text text-anchor="middle" x="299.5" y="-322.3" font-family="Times New Roman,serif" font-size="14.00">wait</text>
</g>
<!-- stage -->
<g id="node12" class="node"><title>stage</title>
<polygon fill="yellow" stroke="yellow" points="254.25,-212 163.75,-212 163.75,-176 254.25,-176 254.25,-212"/>
<text text-anchor="middle" x="209" y="-190.3" font-family="Times New Roman,serif" font-size="14.00">Stage playing</text>
</g>
<!-- countdown&#45;&gt;stage -->
<g id="edge29" class="edge"><title>countdown&#45;&gt;stage</title>
<path fill="none" stroke="black" d="M236.917,-263.597C231.999,-251.511 225.354,-235.184 219.781,-221.491"/>
<polygon fill="black" stroke="black" points="222.964,-220.027 215.953,-212.084 216.481,-222.666 222.964,-220.027"/>
<text text-anchor="middle" x="241.5" y="-234.3" font-family="Times New Roman,serif" font-size="14.00">wait</text>
</g>
<!-- looser -->
<g id="node17" class="node"><title>looser</title>
<polygon fill="cyan" stroke="cyan" points="404,-124 308,-124 308,-88 404,-88 404,-124"/>
<text text-anchor="middle" x="356" y="-102.3" font-family="Times New Roman,serif" font-size="14.00">Looser screen</text>
</g>
<!-- stage&#45;&gt;looser -->
<g id="edge35" class="edge"><title>stage&#45;&gt;looser</title>
<path fill="none" stroke="black" d="M238.394,-175.803C261.303,-162.401 293.284,-143.691 318.113,-129.165"/>
<polygon fill="black" stroke="black" points="320.043,-132.091 326.907,-124.02 316.509,-126.049 320.043,-132.091"/>
<text text-anchor="middle" x="304.5" y="-146.3" font-family="Times New Roman,serif" font-size="14.00">fail</text>
</g>
<!-- pause -->
<g id="node18" class="node"><title>pause</title>
<polygon fill="cyan" stroke="cyan" points="117.25,-124 28.75,-124 28.75,-88 117.25,-88 117.25,-124"/>
<text text-anchor="middle" x="73" y="-102.3" font-family="Times New Roman,serif" font-size="14.00">Pause screen</text>
</g>
<!-- stage&#45;&gt;pause -->
<g id="edge37" class="edge"><title>stage&#45;&gt;pause</title>
<path fill="none" stroke="black" d="M163.417,-187.291C128.374,-181.857 84.1285,-172.355 73,-158 67.8888,-151.407 66.5399,-142.759 66.8762,-134.461"/>
<polygon fill="black" stroke="black" points="70.377,-134.655 68.0472,-124.32 63.4232,-133.852 70.377,-134.655"/>
<text text-anchor="middle" x="89.5" y="-146.3" font-family="Times New Roman,serif" font-size="14.00">pause</text>
</g>
<!-- completion -->
<g id="node19" class="node"><title>completion</title>
<polygon fill="cyan" stroke="cyan" points="290,-124 208,-124 208,-88 290,-88 290,-124"/>
<text text-anchor="middle" x="249" y="-102.3" font-family="Times New Roman,serif" font-size="14.00">Completion</text>
</g>
<!-- stage&#45;&gt;completion -->
<g id="edge31" class="edge"><title>stage&#45;&gt;completion</title>
<path fill="none" stroke="black" d="M218.842,-175.742C221.905,-170.147 225.208,-163.869 228,-158 231.702,-150.218 235.396,-141.604 238.631,-133.705"/>
<polygon fill="black" stroke="black" points="241.97,-134.783 242.448,-124.199 235.474,-132.174 241.97,-134.783"/>
<text text-anchor="middle" x="248" y="-146.3" font-family="Times New Roman,serif" font-size="14.00">pass</text>
</g>
<!-- screensaver&#45;&gt;menu -->
<g id="edge21" class="edge"><title>screensaver&#45;&gt;menu</title>
<path fill="none" stroke="black" d="M358.306,-300.31C364.187,-346.63 378.176,-472.433 362,-510 360.432,-513.642 358.278,-517.082 355.791,-520.279"/>
<polygon fill="black" stroke="black" points="353.187,-517.94 349.069,-527.702 358.376,-522.639 353.187,-517.94"/>
<text text-anchor="middle" x="382" y="-410.3" font-family="Times New Roman,serif" font-size="14.00">skip</text>
</g>
<!-- winner -->
<g id="node16" class="node"><title>winner</title>
<polygon fill="cyan" stroke="cyan" points="118.25,-36 21.75,-36 21.75,-0 118.25,-0 118.25,-36"/>
<text text-anchor="middle" x="70" y="-14.3" font-family="Times New Roman,serif" font-size="14.00">Winner screen</text>
</g>
<!-- winner&#45;&gt;game -->
<g id="edge49" class="edge"><title>winner&#45;&gt;game</title>
<path fill="none" stroke="black" d="M43.9346,-36.1706C24.0326,-51.5606 0,-76.1231 0,-105 0,-371 0,-371 0,-371 0,-436.396 90.7351,-452.764 150.582,-456.447"/>
<polygon fill="black" stroke="black" points="150.468,-459.945 160.635,-456.966 150.829,-452.955 150.468,-459.945"/>
<text text-anchor="middle" x="12" y="-234.3" font-family="Times New Roman,serif" font-size="14.00">skip</text>
</g>
<!-- looser&#45;&gt;menu -->
<g id="edge47" class="edge"><title>looser&#45;&gt;menu</title>
<path fill="none" stroke="black" d="M404.248,-123.502C433.803,-137.008 466,-159.426 466,-193 466,-459 466,-459 466,-459 466,-503.237 414.79,-525.389 374.094,-536.009"/>
<polygon fill="black" stroke="black" points="373.16,-532.634 364.276,-538.407 374.821,-539.434 373.16,-532.634"/>
<text text-anchor="middle" x="508" y="-322.3" font-family="Times New Roman,serif" font-size="14.00">&lt;escape&gt; stop</text>
</g>
<!-- looser&#45;&gt;countdown -->
<g id="edge45" class="edge"><title>looser&#45;&gt;countdown</title>
<path fill="none" stroke="black" d="M347.609,-124.137C337.057,-145.266 318.011,-182.056 299,-212 288.947,-227.835 285.667,-231.314 274,-246 271.368,-249.313 268.543,-252.751 265.718,-256.121"/>
<polygon fill="black" stroke="black" points="263.027,-253.883 259.214,-263.768 268.359,-258.417 263.027,-253.883"/>
<text text-anchor="middle" x="361" y="-190.3" font-family="Times New Roman,serif" font-size="14.00">&lt;enter&gt; repeat</text>
</g>
<!-- pause&#45;&gt;menu -->
<g id="edge41" class="edge"><title>pause&#45;&gt;menu</title>
<path fill="none" stroke="black" d="M61.8671,-124.007C51.9513,-140.819 39,-167.633 39,-193 39,-459 39,-459 39,-459 39,-507.852 193.965,-531.383 275.757,-540.4"/>
<polygon fill="black" stroke="black" points="275.517,-543.894 285.833,-541.478 276.262,-536.934 275.517,-543.894"/>
<text text-anchor="middle" x="75.5" y="-322.3" font-family="Times New Roman,serif" font-size="14.00">&lt;enter&gt; stop</text>
</g>
<!-- pause&#45;&gt;stage -->
<g id="edge39" class="edge"><title>pause&#45;&gt;stage</title>
<path fill="none" stroke="black" d="M89.0399,-124.072C101.257,-136.812 117.253,-152.866 125,-158 133.882,-163.886 143.915,-169.1 153.875,-173.587"/>
<polygon fill="black" stroke="black" points="152.793,-176.932 163.362,-177.665 155.557,-170.501 152.793,-176.932"/>
<text text-anchor="middle" x="174.5" y="-146.3" font-family="Times New Roman,serif" font-size="14.00">&lt;escape&gt; resume</text>
</g>
<!-- completion&#45;&gt;countdown -->
<g id="edge43" class="edge"><title>completion&#45;&gt;countdown</title>
<path fill="none" stroke="black" d="M258.676,-124.294C261.258,-129.785 263.692,-135.994 265,-142 274.863,-187.297 269.149,-201.261 257,-246 256.276,-248.664 255.434,-251.411 254.532,-254.139"/>
<polygon fill="black" stroke="black" points="251.165,-253.161 251.111,-263.755 257.76,-255.507 251.165,-253.161"/>
<text text-anchor="middle" x="283" y="-190.3" font-family="Times New Roman,serif" font-size="14.00">next</text>
</g>
<!-- completion&#45;&gt;winner -->
<g id="edge33" class="edge"><title>completion&#45;&gt;winner</title>
<path fill="none" stroke="black" d="M213.207,-87.8033C184.822,-74.1657 144.999,-55.0332 114.551,-40.4044"/>
<polygon fill="black" stroke="black" points="115.955,-37.196 105.426,-36.0201 112.924,-43.5056 115.955,-37.196"/>
<text text-anchor="middle" x="249" y="-58.3" font-family="Times New Roman,serif" font-size="14.00">next (all levels are passed)</text>
</g>
</g>
</svg>
